<svg width="216" height="216" viewBox="0 0 216 216" fill="none" xmlns="http://www.w3.org/2000/svg">
<path d="M50.7694 11.6759H63.6681L45.6532 65H34.1237L17.0456 11.6759H29.8722L40.0326 44.3909L50.7694 11.6759Z" fill="black"/>
<path d="M101.537 24.2863H79.7751V32.2849H97.4297V44.463H79.7751V52.8219H101.537V65H67.597V12.1803L101.537 12.1083V24.2863Z" fill="black"/>
<path d="M119.975 65H107.797V12.0362H119.975V65Z" fill="black"/>
<path d="M54.0842 84.1083H66.2622V137H53.0753L35.781 106.158V137H23.603V84.2524H36.8619L54.0842 115.022V84.1083Z" fill="black"/>
<path d="M103.27 83.8921V96.1422H93.1095V137H80.9314V96.1422H70.8431V83.8921H103.27Z" fill="black"/>
<path d="M120.648 137H108.47V84.0362H120.648V137Z" fill="black"/>
<path d="M43.7076 209C41.0174 209 38.4713 208.52 36.0693 207.559C33.6673 206.55 31.5295 205.133 29.656 203.307C27.7344 201.386 26.2452 199.224 25.1883 196.822C24.1795 194.42 23.651 191.85 23.603 189.112V156.036H35.781V189.039C35.781 191.153 36.5737 193.003 38.159 194.588C39.7443 196.077 41.6179 196.822 43.7797 196.822C44.8365 196.822 45.8454 196.606 46.8062 196.173C47.767 195.741 48.6076 195.165 49.3282 194.444C50.0488 193.723 50.6013 192.883 50.9856 191.922C51.3699 190.961 51.5621 189.928 51.5621 188.823V156.036H63.7402V188.751C63.7882 191.489 63.2838 194.084 62.2269 196.534C61.2181 198.984 59.8009 201.121 57.9754 202.947C56.1979 204.772 54.0842 206.238 51.6342 207.343C49.2322 208.399 46.662 208.952 43.9238 209H43.7076Z" fill="black"/>
<path d="M101.514 156.108H113.692V209H100.505L83.2109 178.158V209H71.0328V156.252H84.2918L101.514 187.022V156.108Z" fill="black"/>
<path d="M143.206 156.036C146.857 156.036 150.291 156.733 153.51 158.126C156.729 159.519 159.539 161.417 161.941 163.819C164.343 166.173 166.241 168.959 167.634 172.178C169.027 175.396 169.723 178.831 169.723 182.482C169.723 186.133 169.027 189.568 167.634 192.787C166.241 196.005 164.343 198.816 161.941 201.218C159.539 203.571 156.729 205.445 153.51 206.838C150.291 208.231 146.857 208.928 143.206 208.928C139.555 208.928 136.12 208.231 132.901 206.838C129.682 205.445 126.872 203.571 124.47 201.218C122.116 198.816 120.243 196.005 118.849 192.787C117.456 189.568 116.76 186.133 116.76 182.482C116.76 178.831 117.456 175.396 118.849 172.178C120.243 168.959 122.116 166.173 124.47 163.819C126.872 161.417 129.682 159.519 132.901 158.126C136.12 156.733 139.555 156.036 143.206 156.036ZM143.206 196.75C145.175 196.75 147.025 196.39 148.754 195.669C150.484 194.9 151.997 193.867 153.294 192.57C154.591 191.273 155.6 189.76 156.32 188.031C157.089 186.301 157.473 184.452 157.473 182.482C157.473 180.512 157.089 178.663 156.32 176.933C155.6 175.204 154.591 173.691 153.294 172.394C151.997 171.097 150.484 170.088 148.754 169.367C147.025 168.599 145.175 168.214 143.206 168.214C141.236 168.214 139.386 168.599 137.657 169.367C135.928 170.088 134.414 171.097 133.117 172.394C131.82 173.691 130.787 175.204 130.019 176.933C129.298 178.663 128.938 180.512 128.938 182.482C128.938 184.452 129.298 186.301 130.019 188.031C130.787 189.76 131.82 191.273 133.117 192.57C134.414 193.867 135.928 194.9 137.657 195.669C139.386 196.39 141.236 196.75 143.206 196.75Z" fill="black"/>
<path d="M203.391 197.337C201.419 205.247 193.407 210.061 185.496 208.089C177.589 206.116 172.775 198.105 174.748 190.195C176.719 182.284 184.73 177.47 192.639 179.442C200.549 181.414 205.363 189.427 203.391 197.337Z" fill="url(#paint0_linear_35_29)"/>
<path d="M195.577 191.662C195.871 189.697 194.375 188.641 192.33 187.936L192.993 185.275L191.373 184.871L190.727 187.462C190.301 187.356 189.864 187.256 189.429 187.157L190.08 184.549L188.461 184.145L187.797 186.805C187.444 186.725 187.098 186.646 186.762 186.562L186.764 186.554L184.53 185.996L184.099 187.726C184.099 187.726 185.301 188.002 185.275 188.019C185.932 188.183 186.05 188.617 186.03 188.961C184.212 196.252 186.03 188.961 184.212 196.252C184.132 196.451 183.929 196.75 183.47 196.637C183.486 196.66 182.292 196.343 182.292 196.343L181.488 198.197L183.596 198.723C183.989 198.821 184.373 198.924 184.751 199.021L184.081 201.713L185.699 202.116L186.363 199.453C186.805 199.573 187.234 199.684 187.654 199.788L186.992 202.439L188.612 202.843L189.283 200.156C192.045 200.679 194.123 200.468 194.997 197.969C195.702 195.957 194.962 194.797 193.508 194.04C194.567 193.796 195.364 193.1 195.577 191.662ZM191.876 196.852C191.375 198.864 187.988 197.776 186.89 197.504L187.779 193.937C188.877 194.211 192.399 194.754 191.876 196.852ZM192.377 191.633C191.92 193.463 189.101 192.533 188.186 192.305L188.993 189.07C189.907 189.298 192.852 189.724 192.377 191.633Z" fill="white"/>
<defs>
<linearGradient id="paint0_linear_35_29" x1="174.305" y1="179" x2="174.305" y2="208.531" gradientUnits="userSpaceOnUse">
<stop stop-color="#F9AA4B"/>
<stop offset="1" stop-color="#F7931A"/>
</linearGradient>
</defs>
</svg>
