<svg width="216" height="216" viewBox="0 0 216 216" fill="none" xmlns="http://www.w3.org/2000/svg">
<rect width="215.761" height="215.761" fill="white"/>
<path d="M50.7694 10.6759H63.6681L45.6532 64H34.1237L17.0456 10.6759H29.8722L40.0326 43.3909L50.7694 10.6759Z" fill="black"/>
<path d="M101.537 23.2863H79.7751V31.2849H97.4297V43.463H79.7751V51.8219H101.537V64H67.597V11.1803L101.537 11.1083V23.2863Z" fill="black"/>
<path d="M119.975 64H107.797V11.0362H119.975V64Z" fill="black"/>
<path d="M54.0842 83.1083H66.2622V136H53.0753L35.781 105.158V136H23.603V83.2524H36.8619L54.0842 114.022V83.1083Z" fill="black"/>
<path d="M103.27 82.8921V95.1422H93.1095V136H80.9314V95.1422H70.8431V82.8921H103.27Z" fill="black"/>
<path d="M141.617 95.2863H119.855V103.285H137.51V115.463H119.855V123.822H141.617V136H107.677V83.1803L141.617 83.1083V95.2863Z" fill="black"/>
<path d="M43.7076 208C41.0174 208 38.4713 207.52 36.0693 206.559C33.6673 205.55 31.5295 204.133 29.656 202.307C27.7344 200.386 26.2452 198.224 25.1883 195.822C24.1795 193.42 23.651 190.85 23.603 188.112V155.036H35.781V188.039C35.781 190.153 36.5737 192.003 38.159 193.588C39.7443 195.077 41.6179 195.822 43.7797 195.822C44.8365 195.822 45.8454 195.606 46.8062 195.173C47.767 194.741 48.6076 194.165 49.3282 193.444C50.0488 192.723 50.6013 191.883 50.9856 190.922C51.3699 189.961 51.5621 188.928 51.5621 187.823V155.036H63.7402V187.751C63.7882 190.489 63.2838 193.084 62.2269 195.534C61.2181 197.984 59.8009 200.121 57.9754 201.947C56.1979 203.772 54.0842 205.238 51.6342 206.343C49.2322 207.399 46.662 207.952 43.9238 208H43.7076Z" fill="black"/>
<path d="M101.514 155.108H113.692V208H100.505L83.2109 177.158V208H71.0328V155.252H84.2918L101.514 186.022V155.108Z" fill="black"/>
<path d="M143.206 155.036C146.857 155.036 150.291 155.733 153.51 157.126C156.729 158.519 159.539 160.417 161.941 162.819C164.343 165.173 166.241 167.959 167.634 171.178C169.027 174.396 169.723 177.831 169.723 181.482C169.723 185.133 169.027 188.568 167.634 191.787C166.241 195.005 164.343 197.816 161.941 200.218C159.539 202.571 156.729 204.445 153.51 205.838C150.291 207.231 146.857 207.928 143.206 207.928C139.555 207.928 136.12 207.231 132.901 205.838C129.682 204.445 126.872 202.571 124.47 200.218C122.116 197.816 120.243 195.005 118.849 191.787C117.456 188.568 116.76 185.133 116.76 181.482C116.76 177.831 117.456 174.396 118.849 171.178C120.243 167.959 122.116 165.173 124.47 162.819C126.872 160.417 129.682 158.519 132.901 157.126C136.12 155.733 139.555 155.036 143.206 155.036ZM143.206 195.75C145.175 195.75 147.025 195.39 148.754 194.669C150.484 193.9 151.997 192.867 153.294 191.57C154.591 190.273 155.6 188.76 156.32 187.031C157.089 185.301 157.473 183.452 157.473 181.482C157.473 179.512 157.089 177.663 156.32 175.933C155.6 174.204 154.591 172.691 153.294 171.394C151.997 170.097 150.484 169.088 148.754 168.367C147.025 167.599 145.175 167.214 143.206 167.214C141.236 167.214 139.386 167.599 137.657 168.367C135.928 169.088 134.414 170.097 133.117 171.394C131.82 172.691 130.787 174.204 130.019 175.933C129.298 177.663 128.938 179.512 128.938 181.482C128.938 183.452 129.298 185.301 130.019 187.031C130.787 188.76 131.82 190.273 133.117 191.57C134.414 192.867 135.928 193.9 137.657 194.669C139.386 195.39 141.236 195.75 143.206 195.75Z" fill="black"/>
<path d="M203.391 196.337C201.419 204.247 193.407 209.061 185.496 207.089C177.589 205.117 172.775 197.105 174.748 189.195C176.719 181.284 184.73 176.47 192.639 178.442C200.549 180.414 205.363 188.427 203.391 196.337Z" fill="url(#paint0_linear_3_62)"/>
<path d="M195.577 190.662C195.871 188.697 194.375 187.641 192.33 186.936L192.993 184.275L191.373 183.871L190.727 186.462C190.301 186.356 189.864 186.256 189.429 186.157L190.08 183.548L188.461 183.145L187.797 185.805C187.444 185.725 187.098 185.646 186.762 185.562L186.764 185.554L184.53 184.996L184.099 186.726C184.099 186.726 185.301 187.002 185.275 187.019C185.932 187.183 186.05 187.617 186.03 187.961C184.212 195.252 186.03 187.961 184.212 195.252C184.132 195.451 183.929 195.75 183.47 195.637C183.486 195.66 182.292 195.343 182.292 195.343L181.488 197.197L183.596 197.723C183.989 197.821 184.373 197.924 184.751 198.021L184.081 200.713L185.699 201.116L186.363 198.453C186.805 198.573 187.234 198.684 187.654 198.788L186.992 201.439L188.612 201.843L189.283 199.156C192.045 199.679 194.123 199.468 194.997 196.969C195.702 194.957 194.962 193.797 193.508 193.04C194.567 192.796 195.364 192.1 195.577 190.662ZM191.876 195.852C191.375 197.864 187.988 196.776 186.89 196.504L187.779 192.937C188.877 193.211 192.399 193.754 191.876 195.852ZM192.377 190.633C191.92 192.462 189.101 191.533 188.186 191.305L188.993 188.07C189.907 188.298 192.852 188.724 192.377 190.633Z" fill="white"/>
<defs>
<linearGradient id="paint0_linear_3_62" x1="174.305" y1="178" x2="174.305" y2="207.531" gradientUnits="userSpaceOnUse">
<stop stop-color="#F9AA4B"/>
<stop offset="1" stop-color="#F7931A"/>
</linearGradient>
</defs>
</svg>
