<svg width="420" height="70" viewBox="0 0 420 70" fill="none" xmlns="http://www.w3.org/2000/svg">
<path d="M89.7663 14.6401H101.222L85.2223 62H74.9823L59.8143 14.6401H71.2063L80.2303 43.6961L89.7663 14.6401Z" fill="black"/>
<path d="M134.856 25.8401H115.528V32.9441H131.208V43.7601H115.528V51.1841H134.856V62H104.712V15.0881L134.856 15.0241V25.8401Z" fill="black"/>
<path d="M151.232 62H140.416V14.9601H151.232V62Z" fill="black"/>
<path d="M184.675 15.0241H195.491V62H183.779L168.419 34.6081V62H157.603V15.1521H169.379L184.675 42.4801V15.0241Z" fill="black"/>
<path d="M228.359 14.8321V25.7121H219.336V62H208.52V25.7121H199.56V14.8321H228.359Z" fill="black"/>
<path d="M243.794 62H232.978V14.9601H243.794V62Z" fill="black"/>
<path d="M268.021 62C265.632 62 263.371 61.5734 261.237 60.72C259.104 59.824 257.205 58.5654 255.541 56.9441C253.835 55.2374 252.512 53.3174 251.573 51.1841C250.677 49.0507 250.208 46.7681 250.165 44.3361V14.9601H260.981V44.2721C260.981 46.1494 261.685 47.7921 263.093 49.2001C264.501 50.5227 266.165 51.1841 268.085 51.1841C269.024 51.1841 269.92 50.9921 270.773 50.6081C271.627 50.2241 272.373 49.7121 273.013 49.0721C273.653 48.4321 274.144 47.6854 274.485 46.8321C274.827 45.9787 274.997 45.0614 274.997 44.0801V14.9601H285.813V44.0161C285.856 46.4481 285.408 48.7521 284.469 50.9281C283.573 53.1041 282.315 55.0027 280.693 56.6241C279.115 58.2454 277.237 59.5467 275.061 60.528C272.928 61.4667 270.645 61.9574 268.213 62H268.021Z" fill="black"/>
<path d="M319.362 15.0241H330.178V62H318.466L303.106 34.6081V62H292.29V15.1521H304.066L319.362 42.4801V15.0241Z" fill="black"/>
<path d="M356.391 14.9601C359.633 14.9601 362.684 15.5788 365.543 16.8161C368.401 18.0535 370.897 19.7388 373.031 21.8721C375.164 23.9628 376.849 26.4374 378.087 29.2961C379.324 32.1548 379.943 35.2054 379.943 38.4481C379.943 41.6907 379.324 44.7414 378.087 47.6001C376.849 50.4587 375.164 52.9547 373.031 55.0881C370.897 57.1787 368.401 58.8427 365.543 60.08C362.684 61.3174 359.633 61.936 356.391 61.936C353.148 61.936 350.097 61.3174 347.239 60.08C344.38 58.8427 341.884 57.1787 339.751 55.0881C337.66 52.9547 335.996 50.4587 334.759 47.6001C333.521 44.7414 332.903 41.6907 332.903 38.4481C332.903 35.2054 333.521 32.1548 334.759 29.2961C335.996 26.4374 337.66 23.9628 339.751 21.8721C341.884 19.7388 344.38 18.0535 347.239 16.8161C350.097 15.5788 353.148 14.9601 356.391 14.9601ZM356.391 51.1201C358.14 51.1201 359.783 50.8001 361.319 50.1601C362.855 49.4774 364.199 48.5601 365.351 47.4081C366.503 46.2561 367.399 44.9121 368.039 43.3761C368.721 41.8401 369.063 40.1974 369.063 38.4481C369.063 36.6988 368.721 35.0561 368.039 33.5201C367.399 31.9841 366.503 30.6401 365.351 29.4881C364.199 28.3361 362.855 27.4401 361.319 26.8001C359.783 26.1174 358.14 25.7761 356.391 25.7761C354.641 25.7761 352.999 26.1174 351.463 26.8001C349.927 27.4401 348.583 28.3361 347.431 29.4881C346.279 30.6401 345.361 31.9841 344.679 33.5201C344.039 35.0561 343.719 36.6988 343.719 38.4481C343.719 40.1974 344.039 41.8401 344.679 43.3761C345.361 44.9121 346.279 46.2561 347.431 47.4081C348.583 48.5601 349.927 49.4774 351.463 50.1601C352.999 50.8001 354.641 51.1201 356.391 51.1201Z" fill="black"/>
<path d="M409.843 52.2862C408.092 59.3115 400.976 63.587 393.95 61.8351C386.927 60.0836 382.651 52.9677 384.404 45.9428C386.154 38.9167 393.27 34.6408 400.294 36.3923C407.319 38.1438 411.595 45.2605 409.843 52.2862Z" fill="url(#paint0_linear_35_47)"/>
<path d="M402.903 47.2455C403.164 45.5005 401.836 44.5625 400.019 43.9367L400.608 41.5729L399.169 41.2144L398.596 43.5158C398.217 43.4216 397.829 43.3327 397.443 43.2445L398.021 40.9279L396.583 40.5693L395.993 42.9323C395.68 42.861 395.373 42.7905 395.074 42.7163L395.076 42.7089L393.092 42.2135L392.709 43.7502C392.709 43.7502 393.776 43.9949 393.754 44.0101C394.337 44.1555 394.442 44.5412 394.424 44.8469C392.81 51.3222 394.424 44.8469 392.81 51.3222C392.738 51.4993 392.558 51.7648 392.15 51.664C392.165 51.6849 391.104 51.403 391.104 51.403L390.39 53.05L392.263 53.5167C392.611 53.604 392.952 53.6954 393.288 53.7815L392.693 56.1723L394.13 56.5308L394.72 54.1655C395.112 54.272 395.493 54.3704 395.866 54.463L395.279 56.8173L396.718 57.1759L397.313 54.7896C399.766 55.2539 401.611 55.0666 402.388 52.8475C403.014 51.0608 402.357 50.0301 401.066 49.358C402.006 49.1412 402.714 48.5228 402.903 47.2455ZM399.616 51.8554C399.171 53.6421 396.163 52.6762 395.187 52.434L395.977 49.2666C396.953 49.5101 400.08 49.992 399.616 51.8554ZM400.061 47.2197C399.655 48.8449 397.151 48.0192 396.339 47.8167L397.055 44.944C397.867 45.1465 400.483 45.5243 400.061 47.2197Z" fill="white"/>
<defs>
<linearGradient id="paint0_linear_35_47" x1="384.011" y1="35.9999" x2="384.011" y2="62.2277" gradientUnits="userSpaceOnUse">
<stop stop-color="#F9AA4B"/>
<stop offset="1" stop-color="#F7931A"/>
</linearGradient>
</defs>
</svg>
