<svg width="420" height="70" viewBox="0 0 420 70" fill="none" xmlns="http://www.w3.org/2000/svg">
<rect width="419.545" height="69.0205" fill="white"/>
<path d="M71.9538 14.6401H83.4098L67.4098 62H57.1698L42.0018 14.6401H53.3938L62.4178 43.696L71.9538 14.6401Z" fill="black"/>
<path d="M117.043 25.8401H97.7152V32.944H113.395V43.76H97.7152V51.184H117.043V62H86.8992V15.0881L117.043 15.0241V25.8401Z" fill="black"/>
<path d="M133.419 62H122.603V14.9601H133.419V62Z" fill="black"/>
<path d="M166.863 15.0241H177.679V62H165.967L150.607 34.608V62H139.791V15.1521H151.567L166.863 42.48V15.0241Z" fill="black"/>
<path d="M210.547 14.8321V25.7121H201.523V62H190.707V25.7121H181.747V14.8321H210.547Z" fill="black"/>
<path d="M244.605 25.8401H225.277V32.944H240.957V43.76H225.277V51.184H244.605V62H214.461V15.0881L244.605 15.0241V25.8401Z" fill="black"/>
<path d="M268.021 62C265.632 62 263.371 61.5733 261.237 60.72C259.104 59.824 257.205 58.5653 255.541 56.944C253.835 55.2373 252.512 53.3173 251.573 51.184C250.677 49.0507 250.208 46.768 250.165 44.336V14.9601H260.981V44.272C260.981 46.1493 261.685 47.792 263.093 49.2C264.501 50.5227 266.165 51.184 268.085 51.184C269.024 51.184 269.92 50.992 270.773 50.608C271.627 50.224 272.373 49.712 273.013 49.072C273.653 48.432 274.144 47.6853 274.485 46.832C274.827 45.9787 274.997 45.0613 274.997 44.08V14.9601H285.813V44.016C285.856 46.448 285.408 48.752 284.469 50.928C283.573 53.104 282.315 55.0027 280.693 56.624C279.115 58.2453 277.237 59.5467 275.061 60.528C272.928 61.4667 270.645 61.9573 268.213 62H268.021Z" fill="black"/>
<path d="M319.362 15.0241H330.178V62H318.466L303.106 34.608V62H292.29V15.1521H304.066L319.362 42.48V15.0241Z" fill="black"/>
<path d="M356.391 14.9601C359.633 14.9601 362.684 15.5787 365.543 16.8161C368.401 18.0534 370.897 19.7387 373.031 21.8721C375.164 23.9627 376.849 26.4374 378.087 29.296C379.324 32.1547 379.943 35.2054 379.943 38.448C379.943 41.6907 379.324 44.7414 378.087 47.6C376.849 50.4587 375.164 52.9547 373.031 55.088C370.897 57.1787 368.401 58.8427 365.543 60.08C362.684 61.3173 359.633 61.936 356.391 61.936C353.148 61.936 350.097 61.3173 347.239 60.08C344.38 58.8427 341.884 57.1787 339.751 55.088C337.66 52.9547 335.996 50.4587 334.759 47.6C333.521 44.7414 332.903 41.6907 332.903 38.448C332.903 35.2054 333.521 32.1547 334.759 29.296C335.996 26.4374 337.66 23.9627 339.751 21.8721C341.884 19.7387 344.38 18.0534 347.239 16.8161C350.097 15.5787 353.148 14.9601 356.391 14.9601ZM356.391 51.12C358.14 51.12 359.783 50.8 361.319 50.16C362.855 49.4773 364.199 48.56 365.351 47.408C366.503 46.256 367.399 44.912 368.039 43.376C368.721 41.84 369.063 40.1974 369.063 38.448C369.063 36.6987 368.721 35.056 368.039 33.52C367.399 31.984 366.503 30.64 365.351 29.488C364.199 28.336 362.855 27.44 361.319 26.8001C359.783 26.1174 358.14 25.7761 356.391 25.7761C354.641 25.7761 352.999 26.1174 351.463 26.8001C349.927 27.44 348.583 28.336 347.431 29.488C346.279 30.64 345.361 31.984 344.679 33.52C344.039 35.056 343.719 36.6987 343.719 38.448C343.719 40.1974 344.039 41.84 344.679 43.376C345.361 44.912 346.279 46.256 347.431 47.408C348.583 48.56 349.927 49.4773 351.463 50.16C352.999 50.8 354.641 51.12 356.391 51.12Z" fill="black"/>
<path d="M409.843 52.2863C408.092 59.3116 400.976 63.5871 393.95 61.8351C386.927 60.0836 382.651 52.9678 384.404 45.9429C386.154 38.9168 393.27 34.6409 400.294 36.3924C407.319 38.1439 411.595 45.2606 409.843 52.2863Z" fill="url(#paint0_linear_3_80)"/>
<path d="M402.903 47.2455C403.164 45.5005 401.836 44.5625 400.019 43.9367L400.608 41.5729L399.169 41.2144L398.596 43.5158C398.217 43.4216 397.829 43.3327 397.443 43.2445L398.021 40.9279L396.583 40.5693L395.993 42.9323C395.68 42.861 395.373 42.7905 395.074 42.7163L395.076 42.7089L393.092 42.2135L392.709 43.7502C392.709 43.7502 393.776 43.9949 393.754 44.0101C394.337 44.1555 394.442 44.5412 394.424 44.8469C392.81 51.3222 394.424 44.8469 392.81 51.3222C392.738 51.4993 392.558 51.7648 392.15 51.664C392.165 51.6849 391.104 51.403 391.104 51.403L390.39 53.05L392.263 53.5167C392.611 53.604 392.952 53.6954 393.288 53.7815L392.693 56.1723L394.13 56.5308L394.72 54.1655C395.112 54.272 395.493 54.3704 395.866 54.463L395.279 56.8173L396.718 57.1759L397.313 54.7896C399.766 55.2539 401.611 55.0666 402.388 52.8475C403.014 51.0608 402.357 50.0301 401.066 49.358C402.006 49.1412 402.714 48.5228 402.903 47.2455ZM399.616 51.8554C399.171 53.6421 396.163 52.6762 395.187 52.434L395.977 49.2666C396.953 49.5101 400.08 49.992 399.616 51.8554ZM400.061 47.2197C399.655 48.8449 397.151 48.0192 396.339 47.8167L397.055 44.944C397.867 45.1465 400.483 45.5243 400.061 47.2197Z" fill="white"/>
<defs>
<linearGradient id="paint0_linear_3_80" x1="384.011" y1="35.9999" x2="384.011" y2="62.2278" gradientUnits="userSpaceOnUse">
<stop stop-color="#F9AA4B"/>
<stop offset="1" stop-color="#F7931A"/>
</linearGradient>
</defs>
</svg>
