<svg width="308" height="146" viewBox="0 0 308 146" fill="none" xmlns="http://www.w3.org/2000/svg">
<path d="M47.7695 13.6759H60.6681L42.6532 67H31.1237L14.0456 13.6759H26.8722L37.0326 46.3909L47.7695 13.6759Z" fill="black"/>
<path d="M98.5371 26.2863H76.7751V34.2849H94.4297V46.463H76.7751V54.8219H98.5371V67H64.5971V14.1803L98.5371 14.1083V26.2863Z" fill="black"/>
<path d="M116.975 67H104.797V14.0362H116.975V67Z" fill="black"/>
<path d="M154.63 14.1083H166.808V67H153.622L136.327 36.1585V67H124.149V14.2524H137.408L154.63 45.0218V14.1083Z" fill="black"/>
<path d="M203.816 13.8921V26.1422H193.656V67H181.478V26.1422H171.389V13.8921H203.816Z" fill="black"/>
<path d="M221.194 67H209.016V14.0362H221.194V67Z" fill="black"/>
<path d="M40.7076 139C38.0174 139 35.4713 138.52 33.0693 137.559C30.6673 136.55 28.5296 135.133 26.656 133.307C24.7344 131.386 23.2452 129.224 22.1883 126.822C21.1795 124.42 20.6511 121.85 20.603 119.112V86.0362H32.7811V119.039C32.7811 121.153 33.5737 123.003 35.159 124.588C36.7444 126.077 38.6179 126.822 40.7797 126.822C41.8366 126.822 42.8454 126.606 43.8062 126.173C44.767 125.741 45.6077 125.165 46.3283 124.444C47.0489 123.723 47.6013 122.883 47.9856 121.922C48.37 120.961 48.5621 119.928 48.5621 118.823V86.0362H60.7402V118.751C60.7882 121.49 60.2838 124.084 59.2269 126.534C58.2181 128.984 56.8009 131.121 54.9754 132.947C53.198 134.772 51.0842 136.238 48.6342 137.343C46.2322 138.399 43.6621 138.952 40.9238 139H40.7076Z" fill="black"/>
<path d="M98.514 86.1083H110.692V139H97.5052L80.2109 108.158V139H68.0328V86.2524H81.2918L98.514 117.022V86.1083Z" fill="black"/>
<path d="M140.206 86.0362C143.857 86.0362 147.291 86.7328 150.51 88.1259C153.729 89.5191 156.539 91.4166 158.941 93.8186C161.343 96.1726 163.241 98.9589 164.634 102.178C166.027 105.396 166.723 108.831 166.723 112.482C166.723 116.133 166.027 119.568 164.634 122.787C163.241 126.005 161.343 128.816 158.941 131.218C156.539 133.571 153.729 135.445 150.51 136.838C147.291 138.231 143.857 138.928 140.206 138.928C136.555 138.928 133.12 138.231 129.901 136.838C126.682 135.445 123.872 133.571 121.47 131.218C119.116 128.816 117.243 126.005 115.849 122.787C114.456 119.568 113.76 116.133 113.76 112.482C113.76 108.831 114.456 105.396 115.849 102.178C117.243 98.9589 119.116 96.1726 121.47 93.8186C123.872 91.4166 126.682 89.5191 129.901 88.1259C133.12 86.7328 136.555 86.0362 140.206 86.0362ZM140.206 126.75C142.175 126.75 144.025 126.39 145.754 125.669C147.484 124.9 148.997 123.867 150.294 122.57C151.591 121.273 152.6 119.76 153.32 118.031C154.089 116.301 154.473 114.452 154.473 112.482C154.473 110.512 154.089 108.663 153.32 106.933C152.6 105.204 151.591 103.691 150.294 102.394C148.997 101.097 147.484 100.088 145.754 99.3672C144.025 98.5986 142.175 98.2143 140.206 98.2143C138.236 98.2143 136.386 98.5986 134.657 99.3672C132.928 100.088 131.414 101.097 130.117 102.394C128.82 103.691 127.787 105.204 127.019 106.933C126.298 108.663 125.938 110.512 125.938 112.482C125.938 114.452 126.298 116.301 127.019 118.031C127.787 119.76 128.82 121.273 130.117 122.57C131.414 123.867 132.928 124.9 134.657 125.669C136.386 126.39 138.236 126.75 140.206 126.75Z" fill="black"/>
<path d="M201.912 127.337C199.94 135.247 191.928 140.061 184.017 138.089C176.11 136.117 171.296 128.105 173.269 120.195C175.24 112.284 183.251 107.47 191.16 109.442C199.07 111.414 203.884 119.427 201.912 127.337Z" fill="url(#paint0_linear_35_38)"/>
<path d="M194.098 121.662C194.392 119.697 192.896 118.641 190.85 117.936L191.514 115.275L189.894 114.871L189.248 117.463C188.822 117.356 188.385 117.256 187.95 117.157L188.601 114.549L186.981 114.145L186.317 116.806C185.965 116.725 185.619 116.646 185.283 116.562L185.285 116.554L183.051 115.996L182.62 117.727C182.62 117.727 183.822 118.002 183.796 118.019C184.452 118.183 184.571 118.617 184.551 118.961C182.733 126.252 184.551 118.961 182.733 126.252C182.653 126.451 182.449 126.75 181.991 126.637C182.007 126.66 180.813 126.343 180.813 126.343L180.009 128.197L182.117 128.723C182.509 128.821 182.894 128.924 183.272 129.021L182.602 131.713L184.22 132.117L184.884 129.453C185.326 129.573 185.755 129.684 186.175 129.788L185.513 132.439L187.133 132.843L187.804 130.156C190.566 130.679 192.643 130.468 193.518 127.969C194.222 125.958 193.483 124.797 192.029 124.04C193.088 123.796 193.885 123.1 194.098 121.662ZM190.396 126.852C189.896 128.864 186.508 127.777 185.41 127.504L186.3 123.938C187.398 124.212 190.92 124.754 190.396 126.852ZM190.897 121.633C190.441 123.463 187.621 122.533 186.707 122.305L187.513 119.071C188.428 119.299 191.373 119.724 190.897 121.633Z" fill="white"/>
<defs>
<linearGradient id="paint0_linear_35_38" x1="172.826" y1="109" x2="172.826" y2="138.531" gradientUnits="userSpaceOnUse">
<stop stop-color="#F9AA4B"/>
<stop offset="1" stop-color="#F7931A"/>
</linearGradient>
</defs>
</svg>
