<svg width="308" height="146" viewBox="0 0 308 146" fill="none" xmlns="http://www.w3.org/2000/svg">
<rect width="307.482" height="145.857" fill="white"/>
<path d="M47.7695 12.6759H60.6681L42.6532 66H31.1237L14.0456 12.6759H26.8722L37.0326 45.3909L47.7695 12.6759Z" fill="black"/>
<path d="M98.5371 25.2863H76.7751V33.2849H94.4297V45.463H76.7751V53.8219H98.5371V66H64.5971V13.1803L98.5371 13.1083V25.2863Z" fill="black"/>
<path d="M116.975 66H104.797V13.0362H116.975V66Z" fill="black"/>
<path d="M154.63 13.1083H166.808V66H153.622L136.327 35.1585V66H124.149V13.2524H137.408L154.63 44.0218V13.1083Z" fill="black"/>
<path d="M203.816 12.8921V25.1422H193.656V66H181.478V25.1422H171.389V12.8921H203.816Z" fill="black"/>
<path d="M242.164 25.2863H220.402V33.2849H238.056V45.463H220.402V53.8219H242.164V66H208.224V13.1803L242.164 13.1083V25.2863Z" fill="black"/>
<path d="M40.7076 138C38.0174 138 35.4713 137.52 33.0693 136.559C30.6673 135.55 28.5296 134.133 26.656 132.307C24.7344 130.386 23.2452 128.224 22.1883 125.822C21.1795 123.42 20.6511 120.85 20.603 118.112V85.0362H32.7811V118.039C32.7811 120.153 33.5737 122.003 35.159 123.588C36.7444 125.077 38.6179 125.822 40.7797 125.822C41.8366 125.822 42.8454 125.606 43.8062 125.173C44.767 124.741 45.6077 124.165 46.3283 123.444C47.0489 122.723 47.6013 121.883 47.9856 120.922C48.37 119.961 48.5621 118.928 48.5621 117.823V85.0362H60.7402V117.751C60.7882 120.49 60.2838 123.084 59.2269 125.534C58.2181 127.984 56.8009 130.121 54.9754 131.947C53.198 133.772 51.0842 135.238 48.6342 136.343C46.2322 137.399 43.6621 137.952 40.9238 138H40.7076Z" fill="black"/>
<path d="M98.514 85.1083H110.692V138H97.5052L80.2109 107.158V138H68.0328V85.2524H81.2918L98.514 116.022V85.1083Z" fill="black"/>
<path d="M140.206 85.0362C143.857 85.0362 147.291 85.7328 150.51 87.1259C153.729 88.5191 156.539 90.4166 158.941 92.8186C161.343 95.1726 163.241 97.9589 164.634 101.178C166.027 104.396 166.723 107.831 166.723 111.482C166.723 115.133 166.027 118.568 164.634 121.787C163.241 125.005 161.343 127.816 158.941 130.218C156.539 132.571 153.729 134.445 150.51 135.838C147.291 137.231 143.857 137.928 140.206 137.928C136.555 137.928 133.12 137.231 129.901 135.838C126.682 134.445 123.872 132.571 121.47 130.218C119.116 127.816 117.243 125.005 115.849 121.787C114.456 118.568 113.76 115.133 113.76 111.482C113.76 107.831 114.456 104.396 115.849 101.178C117.243 97.9589 119.116 95.1726 121.47 92.8186C123.872 90.4166 126.682 88.5191 129.901 87.1259C133.12 85.7328 136.555 85.0362 140.206 85.0362ZM140.206 125.75C142.175 125.75 144.025 125.39 145.754 124.669C147.484 123.9 148.997 122.867 150.294 121.57C151.591 120.273 152.6 118.76 153.32 117.031C154.089 115.301 154.473 113.452 154.473 111.482C154.473 109.512 154.089 107.663 153.32 105.933C152.6 104.204 151.591 102.691 150.294 101.394C148.997 100.097 147.484 99.0878 145.754 98.3672C144.025 97.5986 142.175 97.2143 140.206 97.2143C138.236 97.2143 136.386 97.5986 134.657 98.3672C132.928 99.0878 131.414 100.097 130.117 101.394C128.82 102.691 127.787 104.204 127.019 105.933C126.298 107.663 125.938 109.512 125.938 111.482C125.938 113.452 126.298 115.301 127.019 117.031C127.787 118.76 128.82 120.273 130.117 121.57C131.414 122.867 132.928 123.9 134.657 124.669C136.386 125.39 138.236 125.75 140.206 125.75Z" fill="black"/>
<path d="M201.912 126.337C199.94 134.247 191.928 139.061 184.017 137.089C176.11 135.117 171.296 127.105 173.269 119.195C175.24 111.284 183.251 106.47 191.16 108.442C199.07 110.414 203.884 118.427 201.912 126.337Z" fill="url(#paint0_linear_3_71)"/>
<path d="M194.098 120.662C194.392 118.697 192.896 117.641 190.85 116.936L191.514 114.275L189.894 113.871L189.248 116.463C188.822 116.356 188.385 116.256 187.95 116.157L188.601 113.549L186.981 113.145L186.317 115.806C185.965 115.725 185.619 115.646 185.283 115.562L185.285 115.554L183.051 114.996L182.62 116.727C182.62 116.727 183.822 117.002 183.796 117.019C184.452 117.183 184.571 117.617 184.551 117.961C182.733 125.252 184.551 117.961 182.733 125.252C182.653 125.451 182.449 125.75 181.991 125.637C182.007 125.66 180.813 125.343 180.813 125.343L180.009 127.197L182.117 127.723C182.509 127.821 182.894 127.924 183.272 128.021L182.602 130.713L184.22 131.117L184.884 128.453C185.326 128.573 185.755 128.684 186.175 128.788L185.513 131.439L187.133 131.843L187.804 129.156C190.566 129.679 192.643 129.468 193.518 126.969C194.222 124.958 193.483 123.797 192.029 123.04C193.088 122.796 193.885 122.1 194.098 120.662ZM190.396 125.852C189.896 127.864 186.508 126.777 185.41 126.504L186.3 122.938C187.398 123.212 190.92 123.754 190.396 125.852ZM190.897 120.633C190.441 122.463 187.621 121.533 186.707 121.305L187.513 118.071C188.428 118.299 191.373 118.724 190.897 120.633Z" fill="white"/>
<defs>
<linearGradient id="paint0_linear_3_71" x1="172.826" y1="108" x2="172.826" y2="137.531" gradientUnits="userSpaceOnUse">
<stop stop-color="#F9AA4B"/>
<stop offset="1" stop-color="#F7931A"/>
</linearGradient>
</defs>
</svg>
