<?xml version="1.0" encoding="UTF-8" standalone="no"?>
<svg
   version="1.1"
   id="svg2"
   xml:space="preserve"
   width="1008.7833"
   height="810.11279"
   viewBox="0 0 1008.7833 810.11278"
   sodipodi:docname="beacon.svg"
   inkscape:version="1.1.2 (b8e25be8, 2022-02-05)"
   inkscape:export-filename="/Users/gigi/beacon.png"
   inkscape:export-xdpi="96"
   inkscape:export-ydpi="96"
   xmlns:inkscape="http://www.inkscape.org/namespaces/inkscape"
   xmlns:sodipodi="http://sodipodi.sourceforge.net/DTD/sodipodi-0.dtd"
   xmlns="http://www.w3.org/2000/svg"
   xmlns:svg="http://www.w3.org/2000/svg"
   xmlns:rdf="http://www.w3.org/1999/02/22-rdf-syntax-ns#"
   xmlns:cc="http://creativecommons.org/ns#"
   xmlns:dc="http://purl.org/dc/elements/1.1/"><metadata
     id="metadata8"><rdf:RDF><cc:Work
         rdf:about=""><dc:format>image/svg+xml</dc:format><dc:type
           rdf:resource="http://purl.org/dc/dcmitype/StillImage" /></cc:Work></rdf:RDF></metadata><defs
     id="defs6" /><sodipodi:namedview
     pagecolor="#000000"
     bordercolor="#666666"
     borderopacity="1"
     objecttolerance="10"
     gridtolerance="10"
     guidetolerance="10"
     inkscape:pageopacity="0"
     inkscape:pageshadow="2"
     inkscape:window-width="2560"
     inkscape:window-height="1387"
     id="namedview4"
     inkscape:pagecheckerboard="0"
     showgrid="false"
     inkscape:zoom="0.35239996"
     inkscape:cx="673.95013"
     inkscape:cy="452.61072"
     inkscape:window-x="0"
     inkscape:window-y="25"
     inkscape:window-maximized="0"
     inkscape:current-layer="g10" /><g
     id="g10"
     inkscape:groupmode="layer"
     inkscape:label="beacon"
     transform="matrix(1.3333333,0,0,-1.3333333,-174.41723,1106.3573)" /><g
     inkscape:groupmode="layer"
     id="layer1"
     inkscape:label="signal color"
     style="display:inline"
     transform="translate(131.2361,60.730713)"><g
       id="g19460"
       transform="translate(45.464918,-2.100944)"><path
         d="m 553.612,455.37 c -3.504,0 -7.023,1.22 -9.88,3.69 -6.31,5.46 -6.999,15 -1.539,21.31 13.945,16.12 21.624,36.74 21.624,58.08 0,48.97 -39.84,88.81 -88.809,88.81 -48.969,0 -88.809,-39.84 -88.809,-88.81 0,-21.34 7.679,-41.96 21.624,-58.08 5.46,-6.31 4.771,-15.85 -1.539,-21.31 -6.309,-5.46 -15.851,-4.77 -21.312,1.54 -18.695,21.6 -28.991,49.25 -28.991,77.85 0,31.8 12.381,61.69 34.862,84.17 22.481,22.48 52.372,34.86 84.165,34.86 31.793,0 61.684,-12.38 84.165,-34.86 22.481,-22.48 34.862,-52.37 34.862,-84.17 0,-28.6 -10.296,-56.25 -28.991,-77.85 -2.988,-3.45 -7.199,-5.22 -11.432,-5.23"
         style="fill:#f2f2f2;fill-opacity:1;fill-rule:nonzero;stroke:none;stroke-width:0.1"
         id="path28"
         transform="matrix(1.3333333,0,0,-1.3333333,-305.65333,1045.6266)" /><path
         d="m 594.592,405.73 c -3.826,0 -7.653,1.44 -10.595,4.33 -5.949,5.85 -6.028,15.42 -0.176,21.37 28.259,28.73 43.822,66.74 43.822,107.02 0,84.16 -68.472,152.64 -152.635,152.64 -84.163,0 -152.635,-68.48 -152.635,-152.64 0,-40.28 15.563,-78.29 43.822,-107.02 5.852,-5.95 5.773,-15.52 -0.176,-21.37 -5.949,-5.85 -15.515,-5.77 -21.367,0.18 -33.853,34.41 -52.497,79.95 -52.497,128.21 0,24.68 4.837,48.63 14.376,71.18 9.21,21.78 22.393,41.33 39.181,58.12 16.788,16.79 36.341,29.97 58.117,39.18 22.553,9.54 46.501,14.37 71.179,14.37 24.678,0 48.626,-4.83 71.179,-14.37 21.776,-9.21 41.329,-22.39 58.117,-39.18 16.788,-16.79 29.971,-36.34 39.181,-58.12 9.539,-22.55 14.376,-46.5 14.376,-71.18 0,-48.26 -18.644,-93.8 -52.497,-128.21 -2.958,-3.01 -6.864,-4.51 -10.772,-4.51"
         style="fill:#f2f2f2;fill-opacity:1;fill-rule:nonzero;stroke:none;stroke-width:0.1"
         id="path30"
         transform="matrix(1.3333333,0,0,-1.3333333,-305.65333,1045.6266)" /><path
         d="m 634.802,357 c -3.969,0 -7.93,1.56 -10.897,4.64 -5.781,6.02 -5.591,15.59 0.426,21.37 42.707,41.03 66.227,96.24 66.227,155.44 0,118.86 -96.695,215.55 -215.55,215.55 -118.855,0 -215.55,-96.69 -215.55,-215.55 0,-59.2 23.52,-114.41 66.227,-155.44 6.017,-5.78 6.207,-15.35 0.426,-21.37 -5.782,-6.01 -15.346,-6.2 -21.363,-0.42 -23.615,22.69 -42.187,49.36 -55.2,79.26 -13.475,30.97 -20.308,63.93 -20.308,97.97 0,33.17 6.5,65.36 19.32,95.67 12.379,29.27 30.098,55.55 52.664,78.12 22.566,22.56 48.848,40.28 78.115,52.66 30.31,12.82 62.497,19.32 95.669,19.32 33.172,0 65.359,-6.5 95.669,-19.32 29.267,-12.38 55.549,-30.1 78.115,-52.66 22.566,-22.57 40.285,-48.85 52.664,-78.12 12.82,-30.31 19.32,-62.5 19.32,-95.67 0,-34.04 -6.833,-67 -20.308,-97.97 -13.013,-29.9 -31.585,-56.57 -55.2,-79.26 -2.929,-2.82 -6.701,-4.22 -10.466,-4.22"
         style="fill:#f2f2f2;fill-opacity:1;fill-rule:nonzero;stroke:none;stroke-width:0.1"
         id="path32"
         transform="matrix(1.3333333,0,0,-1.3333333,-305.65333,1045.6266)" /><path
         d="m 492.24,264.58 c 8.583,0 15.432,7.16 15.061,15.74 -3.769,87.06 -16.798,258.56 -32.293,258.56 -15.494,0 -28.523,-171.5 -32.292,-258.56 -0.372,-8.58 6.478,-15.74 15.061,-15.74 h 34.463"
         style="fill:#f2f2f2;fill-opacity:1;fill-rule:nonzero;stroke:none;stroke-width:0.1"
         id="path36"
         transform="matrix(1.3333333,0,0,-1.3333333,-305.65333,1045.6266)" /><g
         transform="matrix(1.8908264,0,0,1.8908264,267.19531,266.60169)"
         id="g1132"><path
           fill="#f7931a"
           d="M 63.033,39.744 C 58.759,56.887 41.396,67.32 24.251,63.045 7.113,58.771 -3.32,41.407 0.956,24.265 5.228,7.12 22.591,-3.314 39.731,0.96 56.875,5.234 67.307,22.6 63.033,39.744 Z"
           id="path1128" /><path
           fill="#ffffff"
           d="M 46.103,27.444 C 46.74,23.186 43.498,20.897 39.065,19.37 l 1.438,-5.768 -3.511,-0.875 -1.4,5.616 c -0.923,-0.23 -1.871,-0.447 -2.813,-0.662 l 1.41,-5.653 -3.509,-0.875 -1.439,5.766 c -0.764,-0.174 -1.514,-0.346 -2.242,-0.527 l 0.004,-0.018 -4.842,-1.209 -0.934,3.75 c 0,0 2.605,0.597 2.55,0.634 1.422,0.355 1.679,1.296 1.636,2.042 l -1.638,6.571 c 0.098,0.025 0.225,0.061 0.365,0.117 -0.117,-0.029 -0.242,-0.061 -0.371,-0.092 l -2.296,9.205 c -0.174,0.432 -0.615,1.08 -1.609,0.834 0.035,0.051 -2.552,-0.637 -2.552,-0.637 l -1.743,4.019 4.569,1.139 c 0.85,0.213 1.683,0.436 2.503,0.646 l -1.453,5.834 3.507,0.875 1.439,-5.772 c 0.958,0.26 1.888,0.5 2.798,0.726 l -1.434,5.745 3.511,0.875 1.453,-5.823 c 5.987,1.133 10.489,0.676 12.384,-4.739 1.527,-4.36 -0.076,-6.875 -3.226,-8.515 2.294,-0.529 4.022,-2.038 4.483,-5.155 z m -8.022,11.249 c -1.085,4.36 -8.426,2.003 -10.806,1.412 l 1.928,-7.729 c 2.38,0.594 10.012,1.77 8.878,6.317 z m 1.086,-11.312 c -0.99,3.966 -7.1,1.951 -9.082,1.457 l 1.748,-7.01 c 1.982,0.494 8.365,1.416 7.334,5.553 z"
           id="path1130" /></g><path
         d="m 553.612,455.37 c -3.504,0 -7.023,1.22 -9.88,3.69 -6.31,5.46 -6.999,15 -1.539,21.31 13.945,16.12 21.624,36.74 21.624,58.08 0,48.97 -39.84,88.81 -88.809,88.81 -48.969,0 -88.809,-39.84 -88.809,-88.81 0,-21.34 7.679,-41.96 21.624,-58.08 5.46,-6.31 4.771,-15.85 -1.539,-21.31 -6.309,-5.46 -15.851,-4.77 -21.312,1.54 -18.695,21.6 -28.991,49.25 -28.991,77.85 0,31.8 12.381,61.69 34.862,84.17 22.481,22.48 52.372,34.86 84.165,34.86 31.793,0 61.684,-12.38 84.165,-34.86 22.481,-22.48 34.862,-52.37 34.862,-84.17 0,-28.6 -10.296,-56.25 -28.991,-77.85 -2.988,-3.45 -7.199,-5.22 -11.432,-5.23"
         style="opacity:0.5;fill:#f7931a;fill-opacity:1;fill-rule:nonzero;stroke:none;stroke-width:0.1"
         id="path11307"
         transform="matrix(1.3333333,0,0,-1.3333333,-305.65333,1045.6266)" /><path
         d="m 594.592,405.73 c -3.826,0 -7.653,1.44 -10.595,4.33 -5.949,5.85 -6.028,15.42 -0.176,21.37 28.259,28.73 43.822,66.74 43.822,107.02 0,84.16 -68.472,152.64 -152.635,152.64 -84.163,0 -152.635,-68.48 -152.635,-152.64 0,-40.28 15.563,-78.29 43.822,-107.02 5.852,-5.95 5.773,-15.52 -0.176,-21.37 -5.949,-5.85 -15.515,-5.77 -21.367,0.18 -33.853,34.41 -52.497,79.95 -52.497,128.21 0,24.68 4.837,48.63 14.376,71.18 9.21,21.78 22.393,41.33 39.181,58.12 16.788,16.79 36.341,29.97 58.117,39.18 22.553,9.54 46.501,14.37 71.179,14.37 24.678,0 48.626,-4.83 71.179,-14.37 21.776,-9.21 41.329,-22.39 58.117,-39.18 16.788,-16.79 29.971,-36.34 39.181,-58.12 9.539,-22.55 14.376,-46.5 14.376,-71.18 0,-48.26 -18.644,-93.8 -52.497,-128.21 -2.958,-3.01 -6.864,-4.51 -10.772,-4.51"
         style="opacity:0.25;fill:#f7931a;fill-opacity:1;fill-rule:nonzero;stroke:none;stroke-width:0.1"
         id="path11309"
         transform="matrix(1.3333333,0,0,-1.3333333,-305.65333,1045.6266)" /><path
         d="m 634.802,357 c -3.969,0 -7.93,1.56 -10.897,4.64 -5.781,6.02 -5.591,15.59 0.426,21.37 42.707,41.03 66.227,96.24 66.227,155.44 0,118.86 -96.695,215.55 -215.55,215.55 -118.855,0 -215.55,-96.69 -215.55,-215.55 0,-59.2 23.52,-114.41 66.227,-155.44 6.017,-5.78 6.207,-15.35 0.426,-21.37 -5.782,-6.01 -15.346,-6.2 -21.363,-0.42 -23.615,22.69 -42.187,49.36 -55.2,79.26 -13.475,30.97 -20.308,63.93 -20.308,97.97 0,33.17 6.5,65.36 19.32,95.67 12.379,29.27 30.098,55.55 52.664,78.12 22.566,22.56 48.848,40.28 78.115,52.66 30.31,12.82 62.497,19.32 95.669,19.32 33.172,0 65.359,-6.5 95.669,-19.32 29.267,-12.38 55.549,-30.1 78.115,-52.66 22.566,-22.57 40.285,-48.85 52.664,-78.12 12.82,-30.31 19.32,-62.5 19.32,-95.67 0,-34.04 -6.833,-67 -20.308,-97.97 -13.013,-29.9 -31.585,-56.57 -55.2,-79.26 -2.929,-2.82 -6.701,-4.22 -10.466,-4.22"
         style="opacity:0.06;fill:#f7931a;fill-opacity:1;fill-rule:nonzero;stroke:none;stroke-width:0.1"
         id="path11311"
         transform="matrix(1.3333333,0,0,-1.3333333,-305.65333,1045.6266)" /></g></g></svg>
