<?xml version="1.0" encoding="UTF-8" standalone="no"?>
<svg
   version="1.1"
   id="svg2"
   xml:space="preserve"
   width="1009"
   height="810"
   viewBox="0 0 1009 810"
   sodipodi:docname="repeat.svg"
   inkscape:version="1.1.2 (b8e25be8, 2022-02-05)"
   inkscape:export-filename="/Users/gigi/repeat.png"
   inkscape:export-xdpi="96"
   inkscape:export-ydpi="96"
   xmlns:inkscape="http://www.inkscape.org/namespaces/inkscape"
   xmlns:sodipodi="http://sodipodi.sourceforge.net/DTD/sodipodi-0.dtd"
   xmlns="http://www.w3.org/2000/svg"
   xmlns:svg="http://www.w3.org/2000/svg"
   xmlns:rdf="http://www.w3.org/1999/02/22-rdf-syntax-ns#"
   xmlns:cc="http://creativecommons.org/ns#"
   xmlns:dc="http://purl.org/dc/elements/1.1/"><metadata
     id="metadata8"><rdf:RDF><cc:Work
         rdf:about=""><dc:format>image/svg+xml</dc:format><dc:type
           rdf:resource="http://purl.org/dc/dcmitype/StillImage" /></cc:Work></rdf:RDF></metadata><defs
     id="defs6" /><sodipodi:namedview
     pagecolor="#000000"
     bordercolor="#666666"
     borderopacity="1"
     objecttolerance="10"
     gridtolerance="10"
     guidetolerance="10"
     inkscape:pageopacity="0"
     inkscape:pageshadow="2"
     inkscape:window-width="2560"
     inkscape:window-height="1387"
     id="namedview4"
     inkscape:pagecheckerboard="0"
     showgrid="false"
     inkscape:zoom="0.71703435"
     inkscape:cx="791.45441"
     inkscape:cy="371.66978"
     inkscape:window-x="0"
     inkscape:window-y="25"
     inkscape:window-maximized="0"
     inkscape:current-layer="g2428" /><g
     id="g10"
     inkscape:groupmode="layer"
     inkscape:label="ink_ext_XXXXXX"
     transform="matrix(1.3333333,0,0,-1.3333333,0,308.17333)"><g
       id="g2428"
       transform="matrix(3.5452058,0,0,3.5452058,-1965.2053,-1403.7546)"><g
         id="g1920"
         transform="matrix(0.75000002,0,0,-0.75000002,241.50618,740.49957)"
         style="fill:#666666;fill-opacity:1"><circle
           fill="#014fb1"
           cx="559.40002"
           cy="486.70001"
           r="100"
           id="circle1918"
           style="fill:#666666;fill-opacity:1" /></g><g
         id="g1924"
         transform="matrix(0.75000002,0,0,-0.75000002,241.50618,740.49957)"
         style="fill:#f2f2f2;fill-opacity:1"><path
           fill="#feda2d"
           d="m 610.2,438.9 c 0,0 51.1,76.1 -36.9,107 -4.4,1.6 -9.3,1.7 -14,1.7 v -14.7 l -21.8,21.8 21.8,21.8 v -14.7 c 5.9,0 11.8,-0.7 17.4,-2.1 32.1,-8 54.5,-36.7 54.5,-69.8 0.1,-19.4 -7.4,-37.4 -21,-51 z"
           id="path1922"
           style="fill:#f2f2f2;fill-opacity:1" /></g><g
         id="g1928"
         transform="matrix(0.75000002,0,0,-0.75000002,241.50618,740.49957)"
         style="fill:#f2f2f2;fill-opacity:1"><path
           fill="#feda2d"
           d="m 511.1,536.6 c 0,0 -51.1,-76.1 36.9,-107 4.4,-1.6 9.3,-1.7 14,-1.7 v 14.7 L 583.8,420.8 562,399 v 14.7 c -5.9,0 -11.8,0.7 -17.4,2.1 -32.1,8 -54.5,36.7 -54.5,69.8 -0.1,19.3 7.4,37.4 21,51 z"
           id="path1926"
           style="fill:#f2f2f2;fill-opacity:1" /></g></g><g
       transform="matrix(2.8831196,0,0,-2.8831196,286.1321,19.647691)"
       id="g922"><path
         fill="#f7931a"
         d="M 63.033,39.744 C 58.759,56.887 41.396,67.32 24.251,63.045 7.113,58.771 -3.32,41.407 0.956,24.265 5.228,7.12 22.591,-3.314 39.731,0.96 56.875,5.234 67.307,22.6 63.033,39.744 Z"
         id="path918" /><path
         fill="#ffffff"
         d="M 46.103,27.444 C 46.74,23.186 43.498,20.897 39.065,19.37 l 1.438,-5.768 -3.511,-0.875 -1.4,5.616 c -0.923,-0.23 -1.871,-0.447 -2.813,-0.662 l 1.41,-5.653 -3.509,-0.875 -1.439,5.766 c -0.764,-0.174 -1.514,-0.346 -2.242,-0.527 l 0.004,-0.018 -4.842,-1.209 -0.934,3.75 c 0,0 2.605,0.597 2.55,0.634 1.422,0.355 1.679,1.296 1.636,2.042 l -1.638,6.571 c 0.098,0.025 0.225,0.061 0.365,0.117 -0.117,-0.029 -0.242,-0.061 -0.371,-0.092 l -2.296,9.205 c -0.174,0.432 -0.615,1.08 -1.609,0.834 0.035,0.051 -2.552,-0.637 -2.552,-0.637 l -1.743,4.019 4.569,1.139 c 0.85,0.213 1.683,0.436 2.503,0.646 l -1.453,5.834 3.507,0.875 1.439,-5.772 c 0.958,0.26 1.888,0.5 2.798,0.726 l -1.434,5.745 3.511,0.875 1.453,-5.823 c 5.987,1.133 10.489,0.676 12.384,-4.739 1.527,-4.36 -0.076,-6.875 -3.226,-8.515 2.294,-0.529 4.022,-2.038 4.483,-5.155 z m -8.022,11.249 c -1.085,4.36 -8.426,2.003 -10.806,1.412 l 1.928,-7.729 c 2.38,0.594 10.012,1.77 8.878,6.317 z m 1.086,-11.312 c -0.99,3.966 -7.1,1.951 -9.082,1.457 l 1.748,-7.01 c 1.982,0.494 8.365,1.416 7.334,5.553 z"
         id="path920" /></g></g></svg>
