<?xml version="1.0" encoding="UTF-8" standalone="no"?>
<svg
   version="1.1"
   id="svg2"
   xml:space="preserve"
   width="1009"
   height="810"
   viewBox="0 0 1009 810"
   sodipodi:docname="handshake.svg"
   inkscape:version="1.1.2 (b8e25be8, 2022-02-05)"
   inkscape:export-filename="/Users/gigi/handshake.png"
   inkscape:export-xdpi="96"
   inkscape:export-ydpi="96"
   xmlns:inkscape="http://www.inkscape.org/namespaces/inkscape"
   xmlns:sodipodi="http://sodipodi.sourceforge.net/DTD/sodipodi-0.dtd"
   xmlns="http://www.w3.org/2000/svg"
   xmlns:svg="http://www.w3.org/2000/svg"
   xmlns:rdf="http://www.w3.org/1999/02/22-rdf-syntax-ns#"
   xmlns:cc="http://creativecommons.org/ns#"
   xmlns:dc="http://purl.org/dc/elements/1.1/"><metadata
     id="metadata8"><rdf:RDF><cc:Work
         rdf:about=""><dc:format>image/svg+xml</dc:format><dc:type
           rdf:resource="http://purl.org/dc/dcmitype/StillImage" /></cc:Work></rdf:RDF></metadata><defs
     id="defs6" /><sodipodi:namedview
     pagecolor="#000000"
     bordercolor="#666666"
     borderopacity="1"
     objecttolerance="10"
     gridtolerance="10"
     guidetolerance="10"
     inkscape:pageopacity="0"
     inkscape:pageshadow="2"
     inkscape:window-width="2560"
     inkscape:window-height="1387"
     id="namedview4"
     inkscape:pagecheckerboard="0"
     showgrid="false"
     inkscape:zoom="0.71703435"
     inkscape:cx="813.76855"
     inkscape:cy="371.66978"
     inkscape:window-x="0"
     inkscape:window-y="25"
     inkscape:window-maximized="0"
     inkscape:current-layer="g10" /><g
     id="g10"
     inkscape:groupmode="layer"
     inkscape:label="ink_ext_XXXXXX"
     transform="matrix(1.3333333,0,0,-1.3333333,0,308.17333)"><g
       id="g1501"
       transform="matrix(1.8200638,0,0,1.8200638,17.388566,-282.95389)"><path
         d="m 216.51,10.7551 c 3.019,0.9812 4.672,4.2254 3.69,7.2449 -0.981,3.0195 -4.225,4.6719 -7.245,3.6906 -6.698,-2.1996 -13.981,-4.3488 -20.54,-5.1301 -5.7,-0.6785 -10.735,-0.3406 -13.933,2.004 -11.058,8.1093 -76.663,63.1457 -91.0371,75.2179 l 23.4591,90.0296 7.069,2.719 c 32.365,-1.146 49.011,0.526 61.46,1.776 21.612,2.172 29.931,3.005 93.217,-16.684 l 37.955,-89.2636 c -1.234,-0.8211 -2.47,-1.6563 -3.707,-2.5039 -2.351,-1.6106 -4.957,-3.45 -7.744,-5.452 -2.572,-1.8515 -3.156,-5.4375 -1.305,-8.0097 1.851,-2.5723 5.438,-3.1563 8.01,-1.3059 2.301,1.6531 4.782,3.3976 7.519,5.2726 2.387,1.6344 4.782,3.2313 7.19,4.7774 2.552,1.4101 3.675,4.5516 2.51,7.2937 l -5.301,-2.2539 5.287,2.25 -40.725,95.7793 c -0.578,1.666 -1.911,3.047 -3.725,3.614 l -1.718,-5.498 1.711,5.49 c -67.804,21.189 -76.694,20.296 -100.299,17.925 -12.218,-1.228 -28.582,-2.871 -60.602,-1.708 -0.901,0.108 -1.84,0.004 -2.747,-0.344 l 0.01,-0.025 -10.413,-4.006 c -1.915,-0.53 -3.504,-2.038 -4.041,-4.1 l 5.574,-1.452 -5.558,1.44 L 75.5371,93.6211 C 74.7656,91.425 75.3793,88.8859 77.2672,87.3 L 80.9723,91.7102 77.2824,87.3 C 77.516,87.1035 158.861,18.7004 171.687,9.29492 c 5.929,-4.34844 13.731,-5.1582 22.078,-4.16406 7.49,0.8918 15.467,3.23516 22.745,5.62424"
         style="fill:#f2f2f2;fill-opacity:1;fill-rule:nonzero;stroke:none;stroke-width:0.1"
         id="path14" /><path
         d="m 163.419,187.573 c 1.765,2.634 1.059,6.202 -1.575,7.966 -2.635,1.764 -6.201,1.059 -7.965,-1.576 -0.11,-0.164 -38.674,-56.981 -5.63,-72.479 l -0.01,-0.02 c 0.202,-0.094 0.405,-0.175 0.61,-0.245 13.051,-5.438 23.077,1.94 34.011,9.988 15.497,11.407 33.358,24.554 65.975,-16.517 l -0.009,-0.008 c 0.218,-0.274 0.457,-0.524 0.712,-0.748 3.913,-4.003 42.927,-44.0578 47.314,-54.2934 0.798,-1.8633 0.995,-3.9793 0.593,-5.9961 -0.363,-1.8289 -1.23,-3.541 -2.596,-4.8445 -1.408,-1.343 -3.408,-2.309 -6.021,-2.6094 -3.529,-0.4074 -8.043,0.3418 -13.602,2.7977 l -44.742,44.7414 c -2.25,2.2488 -5.896,2.2488 -8.145,0 -2.249,-2.2492 -2.249,-5.8965 0,-8.1457 l 45.328,-45.3281 c 0.483,-0.5098 1.069,-0.9395 1.745,-1.2547 l 0.009,0.0203 c 8.128,-3.7918 15.058,-4.9129 20.712,-4.2606 5.286,0.609 9.507,2.7286 12.636,5.7149 3.17,3.0254 5.162,6.8926 5.971,10.9637 0.84,4.2168 0.402,8.6984 -1.314,12.7011 -5.272,12.302 -46.469,54.5484 -49.756,57.9094 -39.401,49.488 -61.998,32.86 -81.606,18.427 -8.161,-6.007 -15.648,-11.518 -22.76,-8.668 -0.058,0.029 -0.116,0.058 -0.175,0.086 l -0.006,-0.011 -0.121,0.051 c -20.565,9.865 10.329,55.507 10.417,55.638"
         style="fill:#f2f2f2;fill-opacity:1;fill-rule:nonzero;stroke:none;stroke-width:0.1"
         id="path16" /><path
         d="m 208.427,68.6445 c -2.336,2.1496 -5.973,1.9993 -8.122,-0.3371 -2.15,-2.3367 -1.999,-5.9734 0.337,-8.1226 l 42.283,-39.0305 c 3.901,-3.6023 10.475,-5.95 16.794,-5.9383 3.661,0.0078 7.322,0.7656 10.48,2.4707 3.444,1.8582 6.26,4.7578 7.871,8.9141 1.858,4.7937 1.97,11.1785 -0.777,19.4199 -0.994,3.0066 -4.238,4.6395 -7.245,3.6453 -3.007,-0.9941 -4.64,-4.2383 -3.646,-7.2449 1.815,-5.4434 1.916,-9.2094 0.957,-11.6809 -0.525,-1.3562 -1.459,-2.3105 -2.604,-2.9285 -1.431,-0.7726 -3.2,-1.1164 -5.036,-1.1203 -3.563,-0.0066 -7.088,1.1496 -9.01,2.9238 l -42.282,39.0293"
         style="fill:#f2f2f2;fill-opacity:1;fill-rule:nonzero;stroke:none;stroke-width:0.1"
         id="path18" /><path
         d="m 195.845,42.5207 c -2.261,2.2242 -5.898,2.1941 -8.122,-0.0676 -2.224,-2.2605 -2.194,-5.8984 0.068,-8.1218 l 29.545,-28.70317 4.027,4.09453 -4.032,-4.11328 c 0.519,-0.5086 1.11,-0.89922 1.739,-1.17188 4.306,-2.30664 31.889,-15.659 34.955,19.0938 0.274,3.1691 -2.074,5.9597 -5.242,6.2335 -3.169,0.2723 -5.959,-2.0742 -6.232,-5.2433 C 241.021,7.175 227.826,12.8457 224.827,14.3699 l -28.982,28.1508"
         style="fill:#f2f2f2;fill-opacity:1;fill-rule:nonzero;stroke:none;stroke-width:0.1"
         id="path20" /><path
         d="m 51.7535,230.544 50.1895,-13.448 c 4.591,-1.231 8.26,-4.223 10.471,-8.053 v -0.022 c 2.213,-3.833 2.974,-8.501 1.748,-13.076 L 84.1438,83.9152 c -1.2301,-4.591 -4.2223,-8.2589 -8.052,-10.4699 H 76.0695 C 72.2355,71.2324 67.568,70.4719 62.9922,71.6973 L 12.8023,85.1457 C 8.21133,86.3762 4.54297,89.3684 2.33203,93.1973 v 0.0226 C 0.11875,97.0535 -0.641406,101.721 0.583984,106.297 L 30.602,218.326 c 1.23,4.59 4.2226,8.259 8.0519,10.47 h 0.0223 c 3.8336,2.213 8.5015,2.974 13.0773,1.748 z M 98.973,205.98 48.7836,219.429 c -1.5371,0.412 -3.0981,0.163 -4.3754,-0.568 l 0.0059,-0.01 c -1.2848,-0.742 -2.2871,-1.967 -2.6969,-3.496 L 11.6992,103.327 c -0.4121,-1.537 -0.1637,-3.098 0.568,-4.3747 l 0.0098,0.0047 c 0.7418,-1.284 1.9668,-2.2871 3.4957,-2.6961 L 65.9625,82.8125 c 1.5367,-0.4121 3.0977,-0.1641 4.375,0.5676 l -0.0055,0.0097 c 1.2844,0.7422 2.2868,1.9676 2.6965,3.4961 L 103.046,198.914 c 0.413,1.537 0.164,3.098 -0.567,4.375 l -0.01,-0.005 c -0.742,1.284 -1.967,2.287 -3.496,2.696"
         style="fill:#f2f2f2;fill-opacity:1;fill-rule:nonzero;stroke:none;stroke-width:0.1"
         id="path22" /><path
         d="m 40.9,128.873 c 4.4234,0 8.4285,-1.793 11.3277,-4.692 2.8989,-2.899 4.6922,-6.904 4.6922,-11.327 0,-4.424 -1.7933,-8.429 -4.6922,-11.329 -2.8992,-2.898 -6.9043,-4.6918 -11.3277,-4.6918 -4.423,0 -8.4281,1.7938 -11.3277,4.6918 -2.8989,2.9 -4.6922,6.905 -4.6922,11.329 0,4.423 1.7933,8.428 4.6922,11.327 2.8996,2.899 6.9047,4.692 11.3277,4.692 z m 3.1824,-12.837 c -0.8136,0.814 -1.9394,1.318 -3.1824,1.318 -1.2426,0 -2.3687,-0.504 -3.182,-1.318 -0.8141,-0.814 -1.318,-1.94 -1.318,-3.182 0,-1.243 0.5039,-2.369 1.318,-3.183 0.8133,-0.814 1.9394,-1.317 3.182,-1.317 1.243,0 2.3688,0.503 3.1824,1.317 0.8141,0.814 1.3176,1.94 1.3176,3.183 0,1.242 -0.5035,2.368 -1.3176,3.182"
         style="fill:#f2f2f2;fill-opacity:1;fill-rule:nonzero;stroke:none;stroke-width:0.1"
         id="path24" /><path
         d="m 330.562,211.866 -47.598,-20.843 c -1.437,-0.629 -2.493,-1.805 -3.034,-3.191 -0.542,-1.386 -0.562,-2.971 0.073,-4.422 L 326.527,77.1691 c 0.629,-1.4375 1.805,-2.4933 3.191,-3.0343 1.387,-0.5418 2.973,-0.5614 4.423,0.0734 l 47.597,20.8438 c 1.437,0.6289 2.492,1.8046 3.035,3.1902 0.541,1.3867 0.56,2.9728 -0.075,4.4228 l -46.523,106.24 c -0.63,1.438 -1.806,2.493 -3.191,3.036 -1.386,0.541 -2.973,0.56 -4.422,-0.075 z m -52.188,-10.313 47.598,20.843 c 4.353,1.907 9.084,1.862 13.197,0.254 4.114,-1.608 7.624,-4.789 9.535,-9.155 l 46.525,-106.24 c 1.906,-4.353 1.861,-9.0839 0.253,-13.1984 -1.608,-4.114 -4.789,-7.6242 -9.155,-9.5351 L 338.73,63.6777 c -4.353,-1.9062 -9.084,-1.8613 -13.197,-0.2527 -4.114,1.6074 -7.625,4.7891 -9.536,9.1543 L 269.473,178.82 c -1.907,4.354 -1.862,9.084 -0.253,13.198 1.607,4.114 4.789,7.624 9.154,9.535"
         style="fill:#f2f2f2;fill-opacity:1;fill-rule:nonzero;stroke:none;stroke-width:0.1"
         id="path26" /><path
         d="m 353.703,112.133 c -1.231,-0.187 -2.265,-0.849 -2.94,-1.767 -0.684,-0.928 -1.012,-2.126 -0.822,-3.371 0.186,-1.232 0.848,-2.265 1.766,-2.941 0.929,-0.684 2.127,-1.012 3.372,-0.822 1.232,0.187 2.265,0.849 2.941,1.767 0.683,0.928 1.011,2.126 0.822,3.372 -0.188,1.231 -0.85,2.265 -1.768,2.94 -0.928,0.684 -2.126,1.012 -3.371,0.822 z m -12.211,5.029 c 2.438,3.311 6.131,5.692 10.501,6.357 4.357,0.662 8.577,-0.509 11.877,-2.938 3.312,-2.437 5.693,-6.13 6.357,-10.501 0.663,-4.355 -0.508,-8.576 -2.938,-11.8769 -2.436,-3.3105 -6.13,-5.6914 -10.5,-6.3562 -4.356,-0.6621 -8.576,0.5086 -11.877,2.9375 -3.311,2.4363 -5.692,6.1296 -6.357,10.5006 -0.662,4.356 0.509,8.576 2.937,11.877"
         style="fill:#f2f2f2;fill-opacity:1;fill-rule:nonzero;stroke:none;stroke-width:0.1"
         id="path28" /><g
         transform="matrix(0.40908672,0,0,-0.40908672,341.30285,120.7748)"
         id="g922"><path
           fill="#f7931a"
           d="M 63.033,39.744 C 58.759,56.887 41.396,67.32 24.251,63.045 7.113,58.771 -3.32,41.407 0.956,24.265 5.228,7.12 22.591,-3.314 39.731,0.96 56.875,5.234 67.307,22.6 63.033,39.744 Z"
           id="path918" /><path
           fill="#ffffff"
           d="M 46.103,27.444 C 46.74,23.186 43.498,20.897 39.065,19.37 l 1.438,-5.768 -3.511,-0.875 -1.4,5.616 c -0.923,-0.23 -1.871,-0.447 -2.813,-0.662 l 1.41,-5.653 -3.509,-0.875 -1.439,5.766 c -0.764,-0.174 -1.514,-0.346 -2.242,-0.527 l 0.004,-0.018 -4.842,-1.209 -0.934,3.75 c 0,0 2.605,0.597 2.55,0.634 1.422,0.355 1.679,1.296 1.636,2.042 l -1.638,6.571 c 0.098,0.025 0.225,0.061 0.365,0.117 -0.117,-0.029 -0.242,-0.061 -0.371,-0.092 l -2.296,9.205 c -0.174,0.432 -0.615,1.08 -1.609,0.834 0.035,0.051 -2.552,-0.637 -2.552,-0.637 l -1.743,4.019 4.569,1.139 c 0.85,0.213 1.683,0.436 2.503,0.646 l -1.453,5.834 3.507,0.875 1.439,-5.772 c 0.958,0.26 1.888,0.5 2.798,0.726 l -1.434,5.745 3.511,0.875 1.453,-5.823 c 5.987,1.133 10.489,0.676 12.384,-4.739 1.527,-4.36 -0.076,-6.875 -3.226,-8.515 2.294,-0.529 4.022,-2.038 4.483,-5.155 z m -8.022,11.249 c -1.085,4.36 -8.426,2.003 -10.806,1.412 l 1.928,-7.729 c 2.38,0.594 10.012,1.77 8.878,6.317 z m 1.086,-11.312 c -0.99,3.966 -7.1,1.951 -9.082,1.457 l 1.748,-7.01 c 1.982,0.494 8.365,1.416 7.334,5.553 z"
           id="path920" /></g><g
         transform="matrix(0.40908672,0,0,-0.40908672,27.811626,125.94499)"
         id="g945"><path
           fill="#f7931a"
           d="M 63.033,39.744 C 58.759,56.887 41.396,67.32 24.251,63.045 7.113,58.771 -3.32,41.407 0.956,24.265 5.228,7.12 22.591,-3.314 39.731,0.96 56.875,5.234 67.307,22.6 63.033,39.744 Z"
           id="path941" /><path
           fill="#ffffff"
           d="M 46.103,27.444 C 46.74,23.186 43.498,20.897 39.065,19.37 l 1.438,-5.768 -3.511,-0.875 -1.4,5.616 c -0.923,-0.23 -1.871,-0.447 -2.813,-0.662 l 1.41,-5.653 -3.509,-0.875 -1.439,5.766 c -0.764,-0.174 -1.514,-0.346 -2.242,-0.527 l 0.004,-0.018 -4.842,-1.209 -0.934,3.75 c 0,0 2.605,0.597 2.55,0.634 1.422,0.355 1.679,1.296 1.636,2.042 l -1.638,6.571 c 0.098,0.025 0.225,0.061 0.365,0.117 -0.117,-0.029 -0.242,-0.061 -0.371,-0.092 l -2.296,9.205 c -0.174,0.432 -0.615,1.08 -1.609,0.834 0.035,0.051 -2.552,-0.637 -2.552,-0.637 l -1.743,4.019 4.569,1.139 c 0.85,0.213 1.683,0.436 2.503,0.646 l -1.453,5.834 3.507,0.875 1.439,-5.772 c 0.958,0.26 1.888,0.5 2.798,0.726 l -1.434,5.745 3.511,0.875 1.453,-5.823 c 5.987,1.133 10.489,0.676 12.384,-4.739 1.527,-4.36 -0.076,-6.875 -3.226,-8.515 2.294,-0.529 4.022,-2.038 4.483,-5.155 z m -8.022,11.249 c -1.085,4.36 -8.426,2.003 -10.806,1.412 l 1.928,-7.729 c 2.38,0.594 10.012,1.77 8.878,6.317 z m 1.086,-11.312 c -0.99,3.966 -7.1,1.951 -9.082,1.457 l 1.748,-7.01 c 1.982,0.494 8.365,1.416 7.334,5.553 z"
           id="path943" /></g></g></g></svg>
