<?xml version="1.0" encoding="UTF-8" standalone="no"?>
<svg
   width="2304.0312"
   height="2179.0798"
   viewBox="0 0 2304.0312 2179.0798"
   fill="none"
   version="1.1"
   id="svg1706"
   sodipodi:docname="localbusiness-black.svg"
   inkscape:version="1.1.2 (b8e25be8, 2022-02-05)"
   xmlns:inkscape="http://www.inkscape.org/namespaces/inkscape"
   xmlns:sodipodi="http://sodipodi.sourceforge.net/DTD/sodipodi-0.dtd"
   xmlns="http://www.w3.org/2000/svg"
   xmlns:svg="http://www.w3.org/2000/svg">
  <sodipodi:namedview
     id="namedview1708"
     pagecolor="#000000"
     bordercolor="#666666"
     borderopacity="1.0"
     inkscape:pageshadow="2"
     inkscape:pageopacity="0"
     inkscape:pagecheckerboard="0"
     showgrid="false"
     inkscape:zoom="0.23225567"
     inkscape:cx="1022.58"
     inkscape:cy="1220.6376"
     inkscape:window-width="1440"
     inkscape:window-height="847"
     inkscape:window-x="0"
     inkscape:window-y="25"
     inkscape:window-maximized="0"
     inkscape:current-layer="g1699" />
  <g
     clip-path="url(#clip0_1672_1516)"
     id="g1699"
     transform="translate(0.0311299,-1.20143e-4)">
    <path
       d="m 639.969,512.078 c 70.692,0 128,-57.307 128,-128 0,-70.692 -57.308,-128 -128,-128 -70.693,0 -128,57.308 -128,128 0,70.693 57.307,128 128,128 z"
       fill="#ffac36"
       id="path1687" />
    <rect
       width="2304"
       height="2691"
       fill="#0d6fe0"
       id="rect1625"
       x="0"
       y="0"
       style="fill:none" />
    <path
       d="m 1023.97,2179.08 c 141.38,0 256,-114.62 256,-256 0,-141.39 -114.62,-256 -256,-256 -141.386,0 -256.001,114.61 -256.001,256 0,141.38 114.615,256 256.001,256 z"
       fill="#ff9500"
       id="path1627" />
    <path
       id="path1631"
       d="m 1792,1667 v 510.9219 c 0.6286,-282.2344 229.5891,-510.8418 511.9707,-510.8418 V 2179 H 2304 v -512 z"
       style="fill:#ffac36;fill-opacity:1" />
    <path
       d="m 1280,2179.08 c 0,-67.9 26.97,-133.01 74.98,-181.02 48.01,-48.01 113.12,-74.98 181.02,-74.98 0,104.51 0,256 0,256 0,0 -181.02,0 -256,0 z"
       fill="#ff9500"
       id="path1635" />
    <path
       d="m 1792,1923 h -256 v 256 h 256 z"
       fill="#ffac36"
       id="path1641" />
    <path
       d="m 1536,512 h -256 v 256 h 256 z"
       fill="#ffac36"
       id="path1645" />
    <path
       d="m 1663.97,2179.08 c 70.69,0 128,-57.31 128,-128 0,-70.69 -57.31,-128 -128,-128 -70.69,0 -128,57.31 -128,128 0,70.69 57.31,128 128,128 z"
       fill="#0D6FE0"
       id="path1651"
       style="fill:#000000" />
    <path
       d="m 1665,1923 c 70.69,0 128,-57.31 128,-128 0,-70.69 -57.31,-128 -128,-128 -70.69,0 -128,57.31 -128,128 0,70.69 57.31,128 128,128 z"
       fill="#ff9500"
       id="path1655" />
    <path
       d="m 1920,1667 c 70.69,0 128,-57.31 128,-128 0,-70.69 -57.31,-128 -128,-128 -70.69,0 -128,57.31 -128,128 0,70.69 57.31,128 128,128 z"
       fill="#ffac36"
       id="path1657" />
    <path
       d="m 896.969,518.078 c 70.692,0 128.001,-57.307 128.001,-128 0,-70.692 -57.309,-128 -128.001,-128 -70.693,0 -128,57.308 -128,128 0,70.693 57.307,128 128,128 z"
       fill="#ff9500"
       id="path1659" />
    <path
       d="M -0.0311238,1667.08 C 135.76,1667.08 265.989,1721.02 362.008,1817.04 c 96.018,96.02 149.961,226.25 149.961,362.04 -209.026,0 -512.0001299,0 -512.0001299,0 0,0 1.258e-4,-362.04 6.1e-6,-512 z"
       fill="#ffac36"
       id="path1663" />
    <path
       d="M 512,1.20143e-4 C 512,135.791 458.057,266.02 362.039,362.039 266.02,458.057 135.791,512 7.15934e-6,512 c -1.610852e-5,-209.026 0,-511.999879857 0,-511.999879857 0,0 362.03899284066,1.21485e-4 511.99999284066,0 z"
       fill="#ff9500"
       id="path1665" />
    <path
       d="m 2303.97,512.078 h -512 v 256 h 512 z"
       fill="#ffac36"
       id="path1669" />
    <path
       d="M 108.117,770 V 591.818 h 77.259 c 13.572,0 24.97,1.827 34.192,5.481 9.28,3.654 16.269,8.817 20.968,15.487 4.756,6.67 7.134,14.529 7.134,23.578 0,6.554 -1.45,12.528 -4.35,17.922 -2.842,5.394 -6.845,9.919 -12.007,13.573 -5.162,3.596 -11.194,6.09 -18.096,7.482 v 1.74 c 7.656,0.29 14.616,2.233 20.88,5.829 6.265,3.538 11.253,8.439 14.965,14.704 3.712,6.206 5.568,13.514 5.568,21.924 0,9.745 -2.552,18.416 -7.656,26.014 -5.046,7.598 -12.239,13.573 -21.577,17.923 -9.338,4.35 -20.475,6.525 -33.409,6.525 z m 48.374,-38.629 h 22.621 c 8.12,0 14.21,-1.508 18.27,-4.524 4.06,-3.075 6.09,-7.599 6.09,-13.573 0,-4.176 -0.957,-7.714 -2.871,-10.614 -1.914,-2.9 -4.64,-5.104 -8.178,-6.612 -3.48,-1.508 -7.685,-2.262 -12.615,-2.262 h -23.317 z m 0,-67.514 h 19.836 c 4.235,0 7.976,-0.667 11.224,-2.002 3.248,-1.334 5.771,-3.248 7.569,-5.742 1.856,-2.552 2.784,-5.655 2.784,-9.309 0,-5.51 -1.972,-9.715 -5.916,-12.615 -3.944,-2.959 -8.932,-4.438 -14.965,-4.438 H 156.491 Z M 270.016,770 V 636.364 h 48.025 V 770 Z m 24.012,-147.557 c -6.496,0 -12.064,-2.146 -16.704,-6.438 -4.64,-4.292 -6.96,-9.454 -6.96,-15.487 0,-6.032 2.32,-11.194 6.96,-15.486 4.64,-4.292 10.208,-6.438 16.704,-6.438 6.555,0 12.123,2.146 16.705,6.438 4.64,4.292 6.96,9.454 6.96,15.486 0,6.033 -2.32,11.195 -6.96,15.487 -4.582,4.292 -10.15,6.438 -16.705,6.438 z m 125.727,13.921 v 34.801 h -88.047 v -34.801 z m -70.994,-32.017 h 48.026 v 122.674 c 0,1.856 0.319,3.422 0.957,4.698 0.638,1.218 1.624,2.146 2.958,2.784 1.334,0.58 3.045,0.87 5.133,0.87 1.45,0 3.132,-0.174 5.046,-0.522 1.972,-0.348 3.422,-0.638 4.35,-0.87 l 6.96,33.757 c -2.146,0.638 -5.22,1.421 -9.222,2.349 -3.944,0.928 -8.642,1.537 -14.094,1.827 -11.021,0.58 -20.272,-0.551 -27.754,-3.393 -7.483,-2.9 -13.109,-7.453 -16.879,-13.659 -3.77,-6.207 -5.597,-13.979 -5.481,-23.317 z m 151.088,168.089 c -14.5,0 -26.913,-2.871 -37.237,-8.613 -10.324,-5.8 -18.242,-13.863 -23.752,-24.187 -5.51,-10.382 -8.265,-22.418 -8.265,-36.106 0,-13.689 2.755,-25.695 8.265,-36.019 5.51,-10.383 13.428,-18.445 23.752,-24.187 10.324,-5.8 22.737,-8.7 37.237,-8.7 13.109,0 24.448,2.378 34.018,7.134 9.629,4.698 17.082,11.368 22.36,20.01 5.278,8.585 7.946,18.677 8.004,30.277 h -44.545 c -0.638,-7.018 -2.668,-12.354 -6.09,-16.008 -3.364,-3.712 -7.715,-5.568 -13.051,-5.568 -4.176,0 -7.83,1.218 -10.962,3.654 -3.132,2.378 -5.568,6.003 -7.308,10.875 -1.74,4.814 -2.61,10.876 -2.61,18.184 0,7.308 0.87,13.398 2.61,18.27 1.74,4.815 4.176,8.44 7.308,10.876 3.132,2.378 6.786,3.567 10.962,3.567 3.538,0 6.67,-0.812 9.397,-2.436 2.726,-1.682 4.93,-4.118 6.612,-7.308 1.74,-3.249 2.784,-7.193 3.132,-11.833 h 44.545 c -0.174,11.775 -2.871,22.041 -8.091,30.799 -5.22,8.7 -12.615,15.429 -22.186,20.185 -9.512,4.756 -20.88,7.134 -34.105,7.134 z m 146.129,0 c -14.5,0 -26.913,-2.871 -37.237,-8.613 -10.324,-5.8 -18.241,-13.863 -23.752,-24.187 -5.51,-10.382 -8.265,-22.418 -8.265,-36.106 0,-13.689 2.755,-25.695 8.265,-36.019 5.511,-10.383 13.428,-18.445 23.752,-24.187 10.324,-5.8 22.737,-8.7 37.237,-8.7 14.501,0 26.913,2.9 37.238,8.7 10.324,5.742 18.241,13.804 23.751,24.187 5.511,10.324 8.266,22.33 8.266,36.019 0,13.688 -2.755,25.724 -8.266,36.106 -5.51,10.324 -13.427,18.387 -23.751,24.187 -10.325,5.742 -22.737,8.613 -37.238,8.613 z m 0.348,-35.497 c 4.06,0 7.57,-1.363 10.528,-4.089 2.958,-2.726 5.249,-6.612 6.873,-11.659 1.624,-5.046 2.436,-11.049 2.436,-18.009 0,-7.018 -0.812,-13.022 -2.436,-18.01 -1.624,-5.046 -3.915,-8.932 -6.873,-11.658 -2.958,-2.726 -6.468,-4.089 -10.528,-4.089 -4.292,0 -7.975,1.363 -11.049,4.089 -3.074,2.726 -5.423,6.612 -7.047,11.658 -1.624,4.988 -2.436,10.992 -2.436,18.01 0,6.96 0.812,12.963 2.436,18.009 1.624,5.047 3.973,8.933 7.047,11.659 3.074,2.726 6.757,4.089 11.049,4.089 z M 732.271,770 V 636.364 h 48.026 V 770 Z m 24.013,-147.557 c -6.496,0 -12.064,-2.146 -16.705,-6.438 -4.64,-4.292 -6.96,-9.454 -6.96,-15.487 0,-6.032 2.32,-11.194 6.96,-15.486 4.641,-4.292 10.209,-6.438 16.705,-6.438 6.554,0 12.122,2.146 16.705,6.438 4.64,4.292 6.96,9.454 6.96,15.486 0,6.033 -2.32,11.195 -6.96,15.487 -4.583,4.292 -10.151,6.438 -16.705,6.438 z m 94.058,72.387 V 770 H 802.316 V 636.364 h 45.59 v 25.404 h 1.392 c 2.9,-8.468 8.004,-15.109 15.312,-19.923 7.367,-4.814 15.951,-7.221 25.753,-7.221 9.455,0 17.662,2.175 24.622,6.525 7.018,4.292 12.441,10.208 16.27,17.748 3.886,7.541 5.8,16.154 5.742,25.84 V 770 h -48.026 v -75.17 c 0.058,-6.613 -1.624,-11.804 -5.046,-15.574 -3.364,-3.77 -8.062,-5.655 -14.094,-5.655 -3.945,0 -7.396,0.87 -10.354,2.61 -2.9,1.682 -5.133,4.118 -6.699,7.308 -1.566,3.132 -2.378,6.902 -2.436,11.311 z M 188.856,837.364 v 34.801 H 99.4169 V 837.364 Z M 116.469,971 V 833.536 c 0,-11.021 1.973,-20.156 5.917,-27.406 3.944,-7.251 9.512,-12.674 16.704,-16.27 7.192,-3.596 15.661,-5.394 25.405,-5.394 6.09,0 12.006,0.464 17.749,1.392 5.8,0.928 10.092,1.74 12.876,2.436 l -6.96,34.453 c -1.74,-0.522 -3.77,-0.928 -6.09,-1.218 -2.32,-0.348 -4.351,-0.522 -6.091,-0.522 -4.524,0 -7.569,0.957 -9.135,2.871 -1.566,1.914 -2.349,4.437 -2.349,7.569 V 971 Z m 148.783,2.436 c -14.5,0 -26.913,-2.871 -37.237,-8.613 -10.324,-5.8 -18.242,-13.863 -23.752,-24.187 -5.51,-10.382 -8.265,-22.418 -8.265,-36.106 0,-13.689 2.755,-25.695 8.265,-36.019 5.51,-10.383 13.428,-18.445 23.752,-24.187 10.324,-5.8 22.737,-8.7 37.237,-8.7 14.501,0 26.913,2.9 37.237,8.7 10.325,5.742 18.242,13.804 23.752,24.187 5.51,10.324 8.265,22.33 8.265,36.019 0,13.688 -2.755,25.724 -8.265,36.106 -5.51,10.324 -13.427,18.387 -23.752,24.187 -10.324,5.742 -22.736,8.613 -37.237,8.613 z m 0.348,-35.497 c 4.06,0 7.569,-1.363 10.528,-4.089 2.958,-2.726 5.249,-6.612 6.873,-11.659 1.624,-5.046 2.436,-11.049 2.436,-18.009 0,-7.018 -0.812,-13.022 -2.436,-18.01 -1.624,-5.046 -3.915,-8.932 -6.873,-11.658 -2.959,-2.726 -6.468,-4.089 -10.528,-4.089 -4.292,0 -7.975,1.363 -11.049,4.089 -3.074,2.726 -5.423,6.612 -7.047,11.658 -1.624,4.988 -2.437,10.992 -2.437,18.01 0,6.96 0.813,12.963 2.437,18.009 1.624,5.047 3.973,8.933 7.047,11.659 3.074,2.726 6.757,4.089 11.049,4.089 z M 351.545,971 V 837.364 h 46.634 v 25.404 h 1.392 c 2.436,-9.396 6.293,-16.269 11.571,-20.619 5.336,-4.35 11.571,-6.525 18.706,-6.525 2.088,0 4.147,0.174 6.177,0.522 2.088,0.29 4.089,0.725 6.003,1.305 v 40.978 c -2.378,-0.812 -5.307,-1.421 -8.787,-1.827 -3.48,-0.406 -6.467,-0.609 -8.962,-0.609 -4.698,0 -8.932,1.073 -12.702,3.219 -3.712,2.088 -6.641,5.046 -8.787,8.874 -2.146,3.77 -3.219,8.208 -3.219,13.312 V 971 Z"
       fill="#ffffff"
       id="path1671" />
    <path
       d="M 1579.47,1094 V 915.818 h 48.38 v 139.202 h 72.04 V 1094 Z m 202.6,2.44 c -14.5,0 -26.92,-2.88 -37.24,-8.62 -10.32,-5.8 -18.24,-13.86 -23.75,-24.18 -5.51,-10.39 -8.27,-22.42 -8.27,-36.11 0,-13.69 2.76,-25.7 8.27,-36.019 5.51,-10.383 13.43,-18.445 23.75,-24.187 10.32,-5.8 22.74,-8.7 37.24,-8.7 14.5,0 26.91,2.9 37.23,8.7 10.33,5.742 18.25,13.804 23.76,24.187 5.51,10.319 8.26,22.329 8.26,36.019 0,13.69 -2.75,25.72 -8.26,36.11 -5.51,10.32 -13.43,18.38 -23.76,24.18 -10.32,5.74 -22.73,8.62 -37.23,8.62 z m 0.35,-35.5 c 4.06,0 7.56,-1.36 10.52,-4.09 2.96,-2.73 5.25,-6.61 6.88,-11.66 1.62,-5.04 2.43,-11.05 2.43,-18.01 0,-7.02 -0.81,-13.02 -2.43,-18.01 -1.63,-5.04 -3.92,-8.93 -6.88,-11.656 -2.96,-2.726 -6.46,-4.089 -10.52,-4.089 -4.3,0 -7.98,1.363 -11.05,4.089 -3.08,2.726 -5.43,6.616 -7.05,11.656 -1.63,4.99 -2.44,10.99 -2.44,18.01 0,6.96 0.81,12.97 2.44,18.01 1.62,5.05 3.97,8.93 7.05,11.66 3.07,2.73 6.75,4.09 11.05,4.09 z m 150.32,35.5 c -14.5,0 -26.91,-2.88 -37.23,-8.62 -10.33,-5.8 -18.25,-13.86 -23.76,-24.18 -5.51,-10.39 -8.26,-22.42 -8.26,-36.11 0,-13.69 2.75,-25.7 8.26,-36.019 5.51,-10.383 13.43,-18.445 23.76,-24.187 10.32,-5.8 22.73,-8.7 37.23,-8.7 13.11,0 24.45,2.378 34.02,7.134 9.63,4.698 17.08,11.368 22.36,20.01 5.28,8.585 7.95,18.682 8,30.282 h -44.54 c -0.64,-7.02 -2.67,-12.36 -6.09,-16.01 -3.37,-3.715 -7.72,-5.571 -13.05,-5.571 -4.18,0 -7.83,1.218 -10.96,3.654 -3.14,2.377 -5.57,6.007 -7.31,10.877 -1.74,4.81 -2.61,10.87 -2.61,18.18 0,7.31 0.87,13.4 2.61,18.27 1.74,4.82 4.17,8.44 7.31,10.88 3.13,2.38 6.78,3.56 10.96,3.56 3.54,0 6.67,-0.81 9.39,-2.43 2.73,-1.68 4.93,-4.12 6.62,-7.31 1.74,-3.25 2.78,-7.19 3.13,-11.83 h 44.54 c -0.17,11.77 -2.87,22.04 -8.09,30.8 -5.22,8.7 -12.61,15.43 -22.18,20.18 -9.51,4.76 -20.88,7.14 -34.11,7.14 z m 118.99,-0.35 c -8.53,0 -16.07,-1.39 -22.62,-4.18 -6.5,-2.84 -11.6,-7.13 -15.32,-12.87 -3.71,-5.75 -5.56,-13.05 -5.56,-21.93 0,-7.31 1.24,-13.54 3.74,-18.7 2.49,-5.22 5.97,-9.49 10.44,-12.79 4.46,-3.31 9.65,-5.83 15.57,-7.57 5.97,-1.74 12.41,-2.87 19.31,-3.4 7.49,-0.58 13.49,-1.27 18.01,-2.08 4.59,-0.87 7.89,-2.06 9.92,-3.57 2.03,-1.57 3.05,-3.63 3.05,-6.18 v -0.35 c 0,-3.477 -1.34,-6.145 -4,-8.001 -2.67,-1.856 -6.09,-2.784 -10.27,-2.784 -4.58,0 -8.32,1.015 -11.22,3.045 -2.85,1.972 -4.56,5.017 -5.14,9.14 h -44.19 c 0.58,-8.125 3.16,-15.607 7.74,-22.452 4.64,-6.902 11.4,-12.412 20.27,-16.53 8.87,-4.176 19.95,-6.264 33.24,-6.264 9.57,0 18.15,1.131 25.75,3.393 7.6,2.204 14.06,5.307 19.4,9.309 5.34,3.944 9.4,8.584 12.18,13.92 2.84,5.279 4.26,11.021 4.26,17.224 V 1094 h -44.89 v -18.79 h -1.04 c -2.67,4.99 -5.92,9.02 -9.75,12.09 -3.77,3.07 -8.09,5.31 -12.96,6.7 -4.82,1.39 -10.12,2.09 -15.92,2.09 z m 15.66,-30.28 c 3.65,0 7.07,-0.75 10.26,-2.26 3.25,-1.51 5.89,-3.68 7.92,-6.53 2.03,-2.84 3.05,-6.29 3.05,-10.35 v -11.14 c -1.28,0.53 -2.64,1.02 -4.09,1.48 -1.4,0.47 -2.9,0.9 -4.53,1.31 -1.56,0.4 -3.25,0.78 -5.04,1.13 -1.74,0.35 -3.57,0.67 -5.48,0.96 -3.72,0.58 -6.76,1.53 -9.14,2.87 -2.32,1.27 -4.06,2.87 -5.22,4.78 -1.1,1.86 -1.65,3.95 -1.65,6.27 0,3.71 1.3,6.55 3.91,8.52 2.61,1.98 5.95,2.96 10.01,2.96 z M 2204.82,915.818 V 1094 h -48.03 V 915.818 Z M 1110.94,1295 v -178.18 h 77.26 c 13.57,0 24.97,1.83 34.19,5.48 9.28,3.65 16.27,8.82 20.97,15.49 4.75,6.67 7.13,14.53 7.13,23.57 0,6.56 -1.45,12.53 -4.35,17.93 -2.84,5.39 -6.84,9.91 -12,13.57 -5.17,3.59 -11.2,6.09 -18.1,7.48 v 1.74 c 7.66,0.29 14.62,2.23 20.88,5.83 6.26,3.54 11.25,8.44 14.96,14.7 3.72,6.21 5.57,13.52 5.57,21.93 0,9.74 -2.55,18.41 -7.65,26.01 -5.05,7.6 -12.24,13.57 -21.58,17.92 -9.34,4.35 -20.48,6.53 -33.41,6.53 z m 48.37,-38.63 h 22.62 c 8.12,0 14.21,-1.51 18.27,-4.52 4.06,-3.08 6.09,-7.6 6.09,-13.58 0,-4.17 -0.95,-7.71 -2.87,-10.61 -1.91,-2.9 -4.64,-5.1 -8.17,-6.61 -3.48,-1.51 -7.69,-2.26 -12.62,-2.26 h -23.32 z m 0,-67.51 h 19.84 c 4.23,0 7.98,-0.67 11.22,-2 3.25,-1.34 5.77,-3.25 7.57,-5.75 1.86,-2.55 2.79,-5.65 2.79,-9.31 0,-5.51 -1.98,-9.71 -5.92,-12.61 -3.94,-2.96 -8.93,-4.44 -14.96,-4.44 h -20.54 z m 200.18,47.67 v -75.17 h 48.03 V 1295 h -45.59 v -25.4 h -1.39 c -2.9,8.52 -7.98,15.19 -15.23,20.01 -7.25,4.75 -15.86,7.13 -25.84,7.13 -9.34,0 -17.52,-2.15 -24.53,-6.44 -6.96,-4.29 -12.39,-10.21 -16.27,-17.75 -3.83,-7.54 -5.77,-16.18 -5.83,-25.92 v -85.27 h 48.02 v 75.17 c 0.06,6.62 1.74,11.81 5.05,15.58 3.36,3.77 8.06,5.65 14.09,5.65 4.01,0 7.46,-0.84 10.36,-2.52 2.96,-1.74 5.22,-4.18 6.78,-7.31 1.63,-3.19 2.41,-6.99 2.35,-11.4 z m 192.16,-31.66 h -44.2 c -0.23,-2.73 -1.19,-5.08 -2.87,-7.05 -1.68,-1.97 -3.86,-3.48 -6.53,-4.53 -2.61,-1.1 -5.51,-1.65 -8.7,-1.65 -4.12,0 -7.65,0.75 -10.61,2.26 -2.96,1.51 -4.41,3.66 -4.35,6.44 -0.06,1.97 0.78,3.8 2.52,5.48 1.8,1.68 5.25,2.99 10.35,3.92 l 27.15,4.87 c 13.69,2.49 23.87,6.7 30.54,12.61 6.73,5.86 10.12,13.72 10.18,23.58 -0.06,9.51 -2.9,17.78 -8.53,24.8 -5.57,6.96 -13.2,12.35 -22.88,16.18 -9.63,3.77 -20.62,5.66 -32.98,5.66 -20.41,0 -36.39,-4.18 -47.93,-12.53 -11.49,-8.35 -17.9,-19.37 -19.23,-33.06 h 47.68 c 0.63,4.23 2.72,7.51 6.26,9.83 3.6,2.26 8.12,3.39 13.57,3.39 4.41,0 8.04,-0.75 10.88,-2.26 2.9,-1.51 4.38,-3.66 4.43,-6.44 -0.05,-2.55 -1.33,-4.58 -3.82,-6.09 -2.44,-1.51 -6.27,-2.73 -11.49,-3.65 l -23.66,-4.18 c -13.63,-2.38 -23.84,-6.9 -30.63,-13.57 -6.78,-6.67 -10.15,-15.26 -10.09,-25.76 -0.06,-9.28 2.38,-17.13 7.31,-23.57 4.99,-6.5 12.09,-11.43 21.31,-14.79 9.28,-3.43 20.28,-5.14 32.98,-5.14 19.31,0 34.54,4.01 45.67,12.01 11.2,8 17.09,19.08 17.67,33.24 z m 19.43,90.13 v -133.64 h 48.02 V 1295 Z m 24.01,-147.56 c -6.5,0 -12.06,-2.14 -16.7,-6.44 -4.64,-4.29 -6.96,-9.45 -6.96,-15.48 0,-6.03 2.32,-11.2 6.96,-15.49 4.64,-4.29 10.2,-6.44 16.7,-6.44 6.55,0 12.12,2.15 16.7,6.44 4.65,4.29 6.97,9.46 6.97,15.49 0,6.03 -2.32,11.19 -6.97,15.48 -4.58,4.3 -10.15,6.44 -16.7,6.44 z m 94.06,72.39 V 1295 h -48.03 v -133.64 h 45.59 v 25.41 h 1.39 c 2.9,-8.47 8.01,-15.11 15.32,-19.93 7.36,-4.81 15.95,-7.22 25.75,-7.22 9.45,0 17.66,2.18 24.62,6.53 7.02,4.29 12.44,10.21 16.27,17.75 3.89,7.54 5.8,16.15 5.74,25.84 V 1295 h -48.02 v -75.17 c 0.06,-6.61 -1.63,-11.8 -5.05,-15.57 -3.36,-3.77 -8.06,-5.66 -14.09,-5.66 -3.95,0 -7.4,0.87 -10.36,2.61 -2.9,1.68 -5.13,4.12 -6.7,7.31 -1.56,3.13 -2.37,6.9 -2.43,11.31 z m 171.95,77.61 c -14.27,0 -26.57,-2.73 -36.89,-8.18 -10.27,-5.51 -18.19,-13.4 -23.76,-23.67 -5.51,-10.32 -8.26,-22.68 -8.26,-37.06 0,-13.8 2.78,-25.87 8.35,-36.19 5.57,-10.33 13.43,-18.36 23.58,-24.1 10.15,-5.75 22.13,-8.62 35.93,-8.62 10.09,0 19.23,1.57 27.41,4.7 8.18,3.13 15.16,7.69 20.97,13.66 5.8,5.92 10.26,13.11 13.39,21.58 3.14,8.47 4.7,18.01 4.7,28.62 v 11.14 h -119.37 v -26.45 h 75.17 c -0.05,-3.83 -1.04,-7.19 -2.95,-10.09 -1.86,-2.96 -4.38,-5.25 -7.57,-6.88 -3.14,-1.68 -6.7,-2.52 -10.7,-2.52 -3.89,0 -7.46,0.84 -10.71,2.52 -3.24,1.63 -5.85,3.89 -7.83,6.79 -1.91,2.9 -2.93,6.29 -3.04,10.18 v 28.54 c 0,4.29 0.9,8.12 2.7,11.48 1.79,3.36 4.37,6 7.74,7.92 3.36,1.91 7.42,2.87 12.18,2.87 3.31,0 6.32,-0.47 9.05,-1.39 2.78,-0.93 5.16,-2.27 7.13,-4.01 1.97,-1.79 3.42,-3.94 4.35,-6.43 h 43.85 c -1.51,9.28 -5.07,17.34 -10.7,24.18 -5.63,6.79 -13.08,12.07 -22.36,15.84 -9.22,3.71 -20.01,5.57 -32.36,5.57 z m 204.72,-92.57 h -44.2 c -0.23,-2.73 -1.19,-5.08 -2.87,-7.05 -1.68,-1.97 -3.85,-3.48 -6.52,-4.53 -2.61,-1.1 -5.51,-1.65 -8.7,-1.65 -4.12,0 -7.66,0.75 -10.62,2.26 -2.96,1.51 -4.41,3.66 -4.35,6.44 -0.06,1.97 0.79,3.8 2.53,5.48 1.79,1.68 5.24,2.99 10.35,3.92 l 27.14,4.87 c 13.69,2.49 23.87,6.7 30.54,12.61 6.73,5.86 10.12,13.72 10.18,23.58 -0.06,9.51 -2.9,17.78 -8.53,24.8 -5.56,6.96 -13.19,12.35 -22.88,16.18 -9.63,3.77 -20.62,5.66 -32.97,5.66 -20.42,0 -36.4,-4.18 -47.94,-12.53 -11.48,-8.35 -17.89,-19.37 -19.23,-33.06 h 47.68 c 0.64,4.23 2.73,7.51 6.26,9.83 3.6,2.26 8.12,3.39 13.58,3.39 4.41,0 8.03,-0.75 10.87,-2.26 2.9,-1.51 4.38,-3.66 4.44,-6.44 -0.06,-2.55 -1.33,-4.58 -3.83,-6.09 -2.43,-1.51 -6.26,-2.73 -11.48,-3.65 l -23.67,-4.18 c -13.63,-2.38 -23.84,-6.9 -30.62,-13.57 -6.79,-6.67 -10.15,-15.26 -10.1,-25.76 -0.05,-9.28 2.38,-17.13 7.31,-23.57 4.99,-6.5 12.1,-11.43 21.32,-14.79 9.28,-3.43 20.27,-5.14 32.97,-5.14 19.32,0 34.54,4.01 45.68,12.01 11.19,8 17.08,19.08 17.66,33.24 z m 141.58,0 h -44.19 c -0.24,-2.73 -1.19,-5.08 -2.87,-7.05 -1.69,-1.97 -3.86,-3.48 -6.53,-4.53 -2.61,-1.1 -5.51,-1.65 -8.7,-1.65 -4.12,0 -7.66,0.75 -10.61,2.26 -2.96,1.51 -4.41,3.66 -4.35,6.44 -0.06,1.97 0.78,3.8 2.52,5.48 1.8,1.68 5.25,2.99 10.35,3.92 l 27.15,4.87 c 13.69,2.49 23.86,6.7 30.53,12.61 6.73,5.86 10.13,13.72 10.18,23.58 -0.05,9.51 -2.9,17.78 -8.52,24.8 -5.57,6.96 -13.2,12.35 -22.88,16.18 -9.63,3.77 -20.62,5.66 -32.98,5.66 -20.41,0 -36.39,-4.18 -47.94,-12.53 -11.48,-8.35 -17.89,-19.37 -19.22,-33.06 h 47.67 c 0.64,4.23 2.73,7.51 6.27,9.83 3.59,2.26 8.12,3.39 13.57,3.39 4.41,0 8.03,-0.75 10.88,-2.26 2.9,-1.51 4.37,-3.66 4.43,-6.44 -0.06,-2.55 -1.33,-4.58 -3.83,-6.09 -2.43,-1.51 -6.26,-2.73 -11.48,-3.65 l -23.66,-4.18 c -13.64,-2.38 -23.84,-6.9 -30.63,-13.57 -6.79,-6.67 -10.15,-15.26 -10.09,-25.76 -0.06,-9.28 2.38,-17.13 7.31,-23.57 4.98,-6.5 12.09,-11.43 21.31,-14.79 9.28,-3.43 20.27,-5.14 32.98,-5.14 19.31,0 34.54,4.01 45.67,12.01 11.2,8 17.08,19.08 17.66,33.24 z"
       fill="#ffffff"
       id="path1673" />
    <path
       d="M 99.7344,1337.76 V 1328 h 45.9926 v 9.76 H 128.582 V 1384 h -11.703 v -46.24 z M 165.5,1359.72 V 1384 h -11.648 v -56 h 11.32 v 21.41 h 0.493 c 0.947,-2.48 2.479,-4.42 4.593,-5.82 2.115,-1.43 4.767,-2.14 7.957,-2.14 2.917,0 5.46,0.64 7.629,1.92 2.188,1.25 3.883,3.07 5.086,5.44 1.222,2.35 1.823,5.17 1.805,8.45 V 1384 h -11.649 v -24.66 c 0.019,-2.59 -0.638,-4.61 -1.968,-6.05 -1.313,-1.44 -3.154,-2.16 -5.524,-2.16 -1.586,0 -2.989,0.34 -4.211,1.01 -1.203,0.68 -2.151,1.66 -2.843,2.96 -0.675,1.27 -1.021,2.81 -1.04,4.62 z m 56.312,25.1 c -4.32,0 -8.039,-0.87 -11.156,-2.62 -3.099,-1.77 -5.487,-4.27 -7.164,-7.5 -1.677,-3.24 -2.515,-7.08 -2.515,-11.51 0,-4.32 0.838,-8.11 2.515,-11.37 1.677,-3.27 4.038,-5.81 7.082,-7.63 3.063,-1.83 6.654,-2.74 10.774,-2.74 2.77,0 5.35,0.45 7.738,1.34 2.406,0.88 4.503,2.2 6.289,3.97 1.805,1.77 3.208,3.99 4.211,6.67 1.003,2.66 1.504,5.78 1.504,9.35 v 3.2 h -35.465 v -7.22 h 24.5 c 0,-1.68 -0.365,-3.16 -1.094,-4.46 -0.729,-1.29 -1.741,-2.3 -3.035,-3.03 -1.276,-0.75 -2.762,-1.12 -4.457,-1.12 -1.768,0 -3.336,0.41 -4.703,1.23 -1.349,0.8 -2.406,1.89 -3.172,3.25 -0.766,1.35 -1.158,2.86 -1.176,4.51 v 6.87 c 0,2.08 0.383,3.87 1.149,5.38 0.784,1.52 1.886,2.68 3.308,3.5 1.422,0.82 3.108,1.23 5.059,1.23 1.294,0 2.479,-0.18 3.555,-0.54 1.075,-0.37 1.996,-0.91 2.761,-1.64 0.766,-0.73 1.349,-1.62 1.75,-2.68 l 10.774,0.71 c -0.547,2.59 -1.668,4.85 -3.364,6.78 -1.677,1.91 -3.846,3.41 -6.507,4.48 -2.644,1.06 -5.697,1.59 -9.161,1.59 z m 46.459,-0.82 v -56 h 11.649 v 21.05 h 0.355 c 0.511,-1.13 1.249,-2.27 2.215,-3.44 0.985,-1.19 2.261,-2.17 3.828,-2.95 1.586,-0.81 3.555,-1.21 5.907,-1.21 3.062,0 5.888,0.81 8.476,2.41 2.589,1.59 4.658,3.98 6.207,7.19 1.55,3.19 2.324,7.19 2.324,12 0,4.69 -0.756,8.65 -2.269,11.87 -1.495,3.21 -3.537,5.64 -6.125,7.3 -2.57,1.64 -5.451,2.46 -8.641,2.46 -2.26,0 -4.183,-0.37 -5.769,-1.12 -1.568,-0.74 -2.853,-1.68 -3.856,-2.81 -1.002,-1.15 -1.768,-2.31 -2.297,-3.48 h -0.519 v 6.73 z m 11.403,-21 c 0,2.5 0.346,4.68 1.039,6.54 0.693,1.85 1.695,3.3 3.008,4.34 1.312,1.02 2.907,1.53 4.785,1.53 1.896,0 3.5,-0.52 4.812,-1.55 1.313,-1.06 2.306,-2.52 2.981,-4.38 0.692,-1.88 1.039,-4.04 1.039,-6.48 0,-2.42 -0.337,-4.56 -1.012,-6.4 -0.674,-1.84 -1.668,-3.28 -2.98,-4.32 -1.313,-1.04 -2.926,-1.56 -4.84,-1.56 -1.896,0 -3.5,0.5 -4.813,1.51 -1.294,1 -2.287,2.42 -2.98,4.26 -0.693,1.84 -1.039,4.01 -1.039,6.51 z m 57.077,21.82 c -4.247,0 -7.92,-0.9 -11.019,-2.71 -3.081,-1.82 -5.46,-4.35 -7.137,-7.6 -1.677,-3.26 -2.516,-7.04 -2.516,-11.35 0,-4.33 0.839,-8.13 2.516,-11.37 1.677,-3.26 4.056,-5.8 7.137,-7.6 3.099,-1.83 6.772,-2.74 11.019,-2.74 4.248,0 7.912,0.91 10.993,2.74 3.099,1.8 5.487,4.34 7.164,7.6 1.677,3.24 2.515,7.04 2.515,11.37 0,4.31 -0.838,8.09 -2.515,11.35 -1.677,3.25 -4.065,5.78 -7.164,7.6 -3.081,1.81 -6.745,2.71 -10.993,2.71 z m 0.055,-9.02 c 1.932,0 3.546,-0.55 4.84,-1.64 1.294,-1.12 2.269,-2.63 2.926,-4.54 0.674,-1.92 1.011,-4.1 1.011,-6.54 0,-2.44 -0.337,-4.62 -1.011,-6.53 -0.657,-1.92 -1.632,-3.43 -2.926,-4.54 -1.294,-1.11 -2.908,-1.67 -4.84,-1.67 -1.95,0 -3.591,0.56 -4.922,1.67 -1.312,1.11 -2.306,2.62 -2.98,4.54 -0.657,1.91 -0.985,4.09 -0.985,6.53 0,2.44 0.328,4.62 0.985,6.54 0.674,1.91 1.668,3.42 2.98,4.54 1.331,1.09 2.972,1.64 4.922,1.64 z m 51.301,-33.8 v 8.75 H 362.814 V 1342 Z m -19.55,-10.06 h 11.648 v 39.15 c 0,1.08 0.164,1.92 0.492,2.52 0.328,0.58 0.784,0.99 1.367,1.23 0.602,0.24 1.295,0.36 2.078,0.36 0.547,0 1.094,-0.05 1.641,-0.14 0.547,-0.11 0.966,-0.19 1.258,-0.25 l 1.832,8.67 c -0.583,0.18 -1.404,0.39 -2.461,0.63 -1.057,0.25 -2.342,0.41 -3.855,0.46 -2.808,0.11 -5.269,-0.26 -7.383,-1.12 -2.097,-0.85 -3.728,-2.18 -4.895,-3.99 -1.166,-1.8 -1.741,-4.08 -1.722,-6.84 z m 50.248,10.06 v 8.75 H 393.512 V 1342 Z m -19.551,-10.06 h 11.649 v 39.15 c 0,1.08 0.164,1.92 0.492,2.52 0.328,0.58 0.784,0.99 1.367,1.23 0.602,0.24 1.294,0.36 2.078,0.36 0.547,0 1.094,-0.05 1.641,-0.14 0.547,-0.11 0.966,-0.19 1.258,-0.25 l 1.832,8.67 c -0.584,0.18 -1.404,0.39 -2.461,0.63 -1.058,0.25 -2.343,0.41 -3.856,0.46 -2.807,0.11 -5.268,-0.26 -7.383,-1.12 -2.096,-0.85 -3.727,-2.18 -4.894,-3.99 -1.167,-1.8 -1.741,-4.08 -1.723,-6.84 z m 46.434,52.88 c -4.247,0 -7.92,-0.9 -11.019,-2.71 -3.081,-1.82 -5.46,-4.35 -7.137,-7.6 -1.677,-3.26 -2.516,-7.04 -2.516,-11.35 0,-4.33 0.839,-8.13 2.516,-11.37 1.677,-3.26 4.056,-5.8 7.137,-7.6 3.099,-1.83 6.772,-2.74 11.019,-2.74 4.248,0 7.912,0.91 10.993,2.74 3.098,1.8 5.486,4.34 7.164,7.6 1.677,3.24 2.515,7.04 2.515,11.37 0,4.31 -0.838,8.09 -2.515,11.35 -1.678,3.25 -4.066,5.78 -7.164,7.6 -3.081,1.81 -6.745,2.71 -10.993,2.71 z m 0.055,-9.02 c 1.932,0 3.546,-0.55 4.84,-1.64 1.294,-1.12 2.269,-2.63 2.926,-4.54 0.674,-1.92 1.011,-4.1 1.011,-6.54 0,-2.44 -0.337,-4.62 -1.011,-6.53 -0.657,-1.92 -1.632,-3.43 -2.926,-4.54 -1.294,-1.11 -2.908,-1.67 -4.84,-1.67 -1.951,0 -3.591,0.56 -4.922,1.67 -1.312,1.11 -2.306,2.62 -2.98,4.54 -0.657,1.91 -0.985,4.09 -0.985,6.53 0,2.44 0.328,4.62 0.985,6.54 0.674,1.91 1.668,3.42 2.98,4.54 1.331,1.09 2.971,1.64 4.922,1.64 z m 28.961,8.2 v -42 h 11.102 v 7.41 h 0.492 c 0.875,-2.46 2.333,-4.4 4.375,-5.82 2.042,-1.43 4.485,-2.14 7.328,-2.14 2.88,0 5.332,0.72 7.356,2.16 2.023,1.43 3.372,3.36 4.047,5.8 h 0.437 c 0.857,-2.41 2.406,-4.33 4.649,-5.77 2.26,-1.46 4.931,-2.19 8.011,-2.19 3.92,0 7.101,1.25 9.543,3.75 2.461,2.48 3.692,6 3.692,10.55 V 1384 h -11.621 v -25.95 c 0,-2.33 -0.62,-4.08 -1.86,-5.25 -1.239,-1.17 -2.789,-1.75 -4.648,-1.75 -2.115,0 -3.765,0.68 -4.949,2.02 -1.185,1.33 -1.778,3.09 -1.778,5.28 V 1384 h -11.293 v -26.2 c 0,-2.06 -0.592,-3.7 -1.777,-4.92 -1.167,-1.22 -2.707,-1.83 -4.621,-1.83 -1.294,0 -2.461,0.33 -3.5,0.99 -1.021,0.63 -1.832,1.54 -2.434,2.7 -0.601,1.15 -0.902,2.5 -0.902,4.05 V 1384 Z m 97.171,-27.62 v 9.24 h -25.539 v -9.24 z m 37.629,9.74 V 1342 h 11.649 v 42 h -11.184 v -7.63 h -0.437 c -0.948,2.46 -2.525,4.44 -4.731,5.93 -2.187,1.5 -4.858,2.25 -8.012,2.25 -2.807,0 -5.277,-0.64 -7.41,-1.92 -2.133,-1.27 -3.801,-3.09 -5.004,-5.44 -1.185,-2.35 -1.786,-5.17 -1.804,-8.45 V 1342 h 11.648 v 24.66 c 0.018,2.48 0.684,4.44 1.996,5.88 1.313,1.44 3.072,2.16 5.277,2.16 1.404,0 2.717,-0.32 3.938,-0.95 1.221,-0.66 2.206,-1.63 2.953,-2.9 0.766,-1.28 1.139,-2.86 1.121,-4.73 z m 21.736,33.63 V 1342 h 11.484 v 7.05 h 0.52 c 0.51,-1.13 1.249,-2.27 2.215,-3.44 0.984,-1.19 2.26,-2.17 3.828,-2.95 1.586,-0.81 3.555,-1.21 5.906,-1.21 3.063,0 5.888,0.81 8.477,2.41 2.588,1.59 4.657,3.98 6.207,7.19 1.549,3.19 2.324,7.19 2.324,12 0,4.69 -0.757,8.65 -2.27,11.87 -1.494,3.21 -3.536,5.64 -6.125,7.3 -2.57,1.64 -5.45,2.46 -8.64,2.46 -2.261,0 -4.184,-0.37 -5.77,-1.12 -1.567,-0.74 -2.853,-1.68 -3.855,-2.81 -1.003,-1.15 -1.768,-2.31 -2.297,-3.48 h -0.356 v 22.48 z M 642.642,1363 c 0,2.5 0.347,4.68 1.039,6.54 0.693,1.85 1.696,3.3 3.008,4.34 1.313,1.02 2.908,1.53 4.785,1.53 1.896,0 3.5,-0.52 4.813,-1.55 1.312,-1.06 2.306,-2.52 2.98,-4.38 0.693,-1.88 1.039,-4.04 1.039,-6.48 0,-2.42 -0.337,-4.56 -1.011,-6.4 -0.675,-1.84 -1.668,-3.28 -2.981,-4.32 -1.312,-1.04 -2.926,-1.56 -4.84,-1.56 -1.895,0 -3.5,0.5 -4.812,1.51 -1.294,1 -2.288,2.42 -2.981,4.26 -0.692,1.84 -1.039,4.01 -1.039,6.51 z m -529.017,113.79 c -2.68,0 -5.068,-0.46 -7.164,-1.39 -2.096,-0.95 -3.755,-2.34 -4.977,-4.19 -1.203,-1.85 -1.8043,-4.17 -1.8043,-6.94 0,-2.33 0.4283,-4.29 1.2853,-5.88 0.857,-1.59 2.023,-2.86 3.5,-3.83 1.476,-0.96 3.153,-1.69 5.031,-2.19 1.896,-0.49 3.883,-0.83 5.961,-1.03 2.443,-0.26 4.411,-0.5 5.906,-0.72 1.495,-0.23 2.58,-0.58 3.254,-1.03 0.675,-0.46 1.012,-1.13 1.012,-2.03 v -0.16 c 0,-1.73 -0.547,-3.07 -1.641,-4.02 -1.075,-0.95 -2.606,-1.42 -4.593,-1.42 -2.097,0 -3.765,0.46 -5.004,1.39 -1.24,0.91 -2.06,2.06 -2.461,3.45 l -10.774,-0.88 c 0.547,-2.55 1.623,-4.76 3.227,-6.62 1.604,-1.87 3.673,-3.31 6.207,-4.32 2.552,-1.02 5.505,-1.53 8.859,-1.53 2.334,0 4.567,0.28 6.699,0.82 2.151,0.55 4.056,1.4 5.715,2.55 1.677,1.14 2.999,2.62 3.965,4.43 0.966,1.78 1.449,3.92 1.449,6.42 V 1476 H 126.23 v -5.82 h -0.328 c -0.674,1.31 -1.576,2.47 -2.707,3.47 -1.13,0.98 -2.488,1.76 -4.074,2.32 -1.586,0.55 -3.418,0.82 -5.496,0.82 z m 3.336,-8.04 c 1.713,0 3.227,-0.33 4.539,-1.01 1.312,-0.69 2.342,-1.62 3.09,-2.79 0.747,-1.16 1.121,-2.49 1.121,-3.96 v -4.46 c -0.365,0.24 -0.866,0.46 -1.504,0.66 -0.62,0.18 -1.322,0.35 -2.105,0.52 -0.784,0.14 -1.568,0.28 -2.352,0.41 -0.784,0.11 -1.495,0.21 -2.133,0.3 -1.367,0.2 -2.561,0.52 -3.582,0.95 -1.021,0.44 -1.814,1.03 -2.379,1.78 -0.565,0.73 -0.847,1.64 -0.847,2.74 0,1.58 0.574,2.79 1.722,3.63 1.167,0.82 2.643,1.23 4.43,1.23 z m 30.123,23 V 1434 h 11.485 v 7.05 h 0.519 c 0.511,-1.13 1.249,-2.27 2.215,-3.44 0.985,-1.19 2.261,-2.17 3.828,-2.95 1.586,-0.81 3.555,-1.21 5.907,-1.21 3.062,0 5.888,0.81 8.476,2.41 2.589,1.59 4.658,3.98 6.207,7.19 1.55,3.19 2.324,7.19 2.324,12 0,4.69 -0.756,8.65 -2.269,11.87 -1.495,3.21 -3.537,5.64 -6.125,7.3 -2.57,1.64 -5.451,2.46 -8.641,2.46 -2.26,0 -4.183,-0.37 -5.769,-1.12 -1.568,-0.74 -2.853,-1.68 -3.856,-2.81 -1.002,-1.15 -1.768,-2.31 -2.297,-3.48 h -0.355 v 22.48 z M 158.487,1455 c 0,2.5 0.346,4.68 1.039,6.54 0.693,1.85 1.695,3.3 3.008,4.34 1.312,1.02 2.907,1.53 4.785,1.53 1.896,0 3.5,-0.52 4.812,-1.55 1.313,-1.06 2.306,-2.52 2.981,-4.38 0.693,-1.88 1.039,-4.04 1.039,-6.48 0,-2.42 -0.337,-4.56 -1.012,-6.4 -0.674,-1.84 -1.668,-3.28 -2.98,-4.32 -1.313,-1.04 -2.926,-1.56 -4.84,-1.56 -1.896,0 -3.5,0.5 -4.813,1.51 -1.294,1 -2.287,2.42 -2.98,4.26 -0.693,1.84 -1.039,4.01 -1.039,6.51 z m 38.094,36.75 V 1434 h 11.484 v 7.05 h 0.52 c 0.51,-1.13 1.249,-2.27 2.215,-3.44 0.984,-1.19 2.26,-2.17 3.828,-2.95 1.586,-0.81 3.555,-1.21 5.906,-1.21 3.063,0 5.888,0.81 8.477,2.41 2.588,1.59 4.657,3.98 6.207,7.19 1.549,3.19 2.324,7.19 2.324,12 0,4.69 -0.757,8.65 -2.27,11.87 -1.494,3.21 -3.536,5.64 -6.125,7.3 -2.57,1.64 -5.45,2.46 -8.64,2.46 -2.261,0 -4.184,-0.37 -5.77,-1.12 -1.567,-0.74 -2.853,-1.68 -3.855,-2.81 -1.003,-1.15 -1.768,-2.31 -2.297,-3.48 h -0.356 v 22.48 z M 207.983,1455 c 0,2.5 0.347,4.68 1.039,6.54 0.693,1.85 1.696,3.3 3.008,4.34 1.313,1.02 2.908,1.53 4.785,1.53 1.896,0 3.5,-0.52 4.813,-1.55 1.312,-1.06 2.306,-2.52 2.98,-4.38 0.693,-1.88 1.039,-4.04 1.039,-6.48 0,-2.42 -0.337,-4.56 -1.011,-6.4 -0.675,-1.84 -1.668,-3.28 -2.981,-4.32 -1.312,-1.04 -2.926,-1.56 -4.84,-1.56 -1.895,0 -3.5,0.5 -4.812,1.51 -1.294,1 -2.288,2.42 -2.981,4.26 -0.692,1.84 -1.039,4.01 -1.039,6.51 z m 38.095,21 v -42 h 11.293 v 7.33 h 0.437 c 0.766,-2.61 2.051,-4.58 3.856,-5.91 1.804,-1.35 3.882,-2.02 6.234,-2.02 0.583,0 1.212,0.03 1.887,0.11 0.674,0.07 1.267,0.17 1.777,0.3 v 10.33 c -0.547,-0.16 -1.303,-0.31 -2.27,-0.43 -0.966,-0.13 -1.85,-0.19 -2.652,-0.19 -1.713,0 -3.245,0.37 -4.594,1.12 -1.33,0.73 -2.388,1.75 -3.172,3.06 -0.765,1.31 -1.148,2.82 -1.148,4.54 V 1476 Z m 49.298,0.82 c -4.247,0 -7.921,-0.9 -11.02,-2.71 -3.08,-1.82 -5.459,-4.35 -7.136,-7.6 -1.677,-3.26 -2.516,-7.04 -2.516,-11.35 0,-4.33 0.839,-8.13 2.516,-11.37 1.677,-3.26 4.056,-5.8 7.136,-7.6 3.099,-1.83 6.773,-2.74 11.02,-2.74 4.247,0 7.911,0.91 10.992,2.74 3.099,1.8 5.487,4.34 7.164,7.6 1.677,3.24 2.516,7.04 2.516,11.37 0,4.31 -0.839,8.09 -2.516,11.35 -1.677,3.25 -4.065,5.78 -7.164,7.6 -3.081,1.81 -6.745,2.71 -10.992,2.71 z m 0.055,-9.02 c 1.932,0 3.545,-0.55 4.839,-1.64 1.295,-1.12 2.27,-2.63 2.926,-4.54 0.675,-1.92 1.012,-4.1 1.012,-6.54 0,-2.44 -0.337,-4.62 -1.012,-6.53 -0.656,-1.92 -1.631,-3.43 -2.926,-4.54 -1.294,-1.11 -2.907,-1.67 -4.839,-1.67 -1.951,0 -3.592,0.56 -4.922,1.67 -1.313,1.11 -2.306,2.62 -2.981,4.54 -0.656,1.91 -0.984,4.09 -0.984,6.53 0,2.44 0.328,4.62 0.984,6.54 0.675,1.91 1.668,3.42 2.981,4.54 1.33,1.09 2.971,1.64 4.922,1.64 z m 40.938,8.99 c -2.68,0 -5.068,-0.46 -7.165,-1.39 -2.096,-0.95 -3.755,-2.34 -4.976,-4.19 -1.203,-1.85 -1.805,-4.17 -1.805,-6.94 0,-2.33 0.429,-4.29 1.285,-5.88 0.857,-1.59 2.024,-2.86 3.5,-3.83 1.477,-0.96 3.154,-1.69 5.032,-2.19 1.895,-0.49 3.882,-0.83 5.961,-1.03 2.442,-0.26 4.411,-0.5 5.906,-0.72 1.495,-0.23 2.579,-0.58 3.254,-1.03 0.674,-0.46 1.011,-1.13 1.011,-2.03 v -0.16 c 0,-1.73 -0.546,-3.07 -1.64,-4.02 -1.076,-0.95 -2.607,-1.42 -4.594,-1.42 -2.096,0 -3.764,0.46 -5.004,1.39 -1.239,0.91 -2.06,2.06 -2.461,3.45 l -10.773,-0.88 c 0.547,-2.55 1.622,-4.76 3.226,-6.62 1.605,-1.87 3.674,-3.31 6.207,-4.32 2.552,-1.02 5.506,-1.53 8.86,-1.53 2.333,0 4.566,0.28 6.699,0.82 2.151,0.55 4.056,1.4 5.715,2.55 1.677,1.14 2.999,2.62 3.965,4.43 0.966,1.78 1.449,3.92 1.449,6.42 V 1476 h -11.047 v -5.82 h -0.328 c -0.675,1.31 -1.577,2.47 -2.707,3.47 -1.13,0.98 -2.488,1.76 -4.074,2.32 -1.586,0.55 -3.418,0.82 -5.496,0.82 z m 3.335,-8.04 c 1.714,0 3.227,-0.33 4.54,-1.01 1.312,-0.69 2.342,-1.62 3.089,-2.79 0.748,-1.16 1.122,-2.49 1.122,-3.96 v -4.46 c -0.365,0.24 -0.866,0.46 -1.504,0.66 -0.62,0.18 -1.322,0.35 -2.106,0.52 -0.784,0.14 -1.568,0.28 -2.351,0.41 -0.784,0.11 -1.495,0.21 -2.133,0.3 -1.367,0.2 -2.561,0.52 -3.582,0.95 -1.021,0.44 -1.814,1.03 -2.379,1.78 -0.565,0.73 -0.848,1.64 -0.848,2.74 0,1.58 0.574,2.79 1.723,3.63 1.166,0.82 2.643,1.23 4.429,1.23 z m 49.101,8.07 c -4.303,0 -8.003,-0.91 -11.102,-2.73 -3.081,-1.85 -5.451,-4.4 -7.109,-7.66 -1.641,-3.26 -2.461,-7.02 -2.461,-11.27 0,-4.3 0.829,-8.07 2.488,-11.32 1.677,-3.26 4.056,-5.8 7.137,-7.63 3.08,-1.84 6.744,-2.76 10.992,-2.76 3.664,0 6.872,0.67 9.625,2 2.752,1.33 4.931,3.2 6.535,5.6 1.604,2.41 2.488,5.24 2.652,8.48 H 396.57 c -0.31,-2.1 -1.13,-3.78 -2.461,-5.06 -1.312,-1.29 -3.035,-1.94 -5.168,-1.94 -1.804,0 -3.381,0.49 -4.73,1.48 -1.331,0.96 -2.37,2.38 -3.117,4.24 -0.748,1.86 -1.121,4.11 -1.121,6.75 0,2.68 0.364,4.96 1.093,6.84 0.748,1.87 1.796,3.3 3.145,4.29 1.349,0.98 2.926,1.48 4.73,1.48 1.331,0 2.525,-0.28 3.582,-0.82 1.076,-0.55 1.96,-1.34 2.653,-2.38 0.711,-1.06 1.175,-2.33 1.394,-3.8 h 10.992 c -0.182,3.2 -1.057,6.03 -2.625,8.47 -1.549,2.43 -3.691,4.32 -6.425,5.69 -2.735,1.37 -5.97,2.05 -9.707,2.05 z m 38.634,-25.1 V 1476 H 415.79 v -56 h 11.321 v 21.41 h 0.492 c 0.948,-2.48 2.479,-4.42 4.594,-5.82 2.114,-1.43 4.767,-2.14 7.957,-2.14 2.916,0 5.459,0.64 7.629,1.92 2.187,1.25 3.882,3.07 5.086,5.44 1.221,2.35 1.822,5.17 1.804,8.45 V 1476 h -11.648 v -24.66 c 0.018,-2.59 -0.638,-4.61 -1.969,-6.05 -1.312,-1.44 -3.154,-2.16 -5.523,-2.16 -1.586,0 -2.99,0.34 -4.211,1.01 -1.203,0.68 -2.151,1.66 -2.844,2.96 -0.675,1.27 -1.021,2.81 -1.039,4.62 z M 505.541,1434 v 8.75 H 480.248 V 1434 Z m -19.55,-10.06 h 11.648 v 39.15 c 0,1.08 0.164,1.92 0.492,2.52 0.328,0.58 0.784,0.99 1.367,1.23 0.602,0.24 1.295,0.36 2.078,0.36 0.547,0 1.094,-0.05 1.641,-0.14 0.547,-0.11 0.966,-0.19 1.258,-0.25 l 1.832,8.67 c -0.583,0.18 -1.404,0.39 -2.461,0.63 -1.057,0.25 -2.342,0.41 -3.855,0.46 -2.808,0.11 -5.269,-0.26 -7.383,-1.12 -2.097,-0.85 -3.728,-2.18 -4.895,-3.99 -1.166,-1.8 -1.741,-4.08 -1.722,-6.84 z m 46.434,52.88 c -4.248,0 -7.921,-0.9 -11.02,-2.71 -3.081,-1.82 -5.46,-4.35 -7.137,-7.6 -1.677,-3.26 -2.515,-7.04 -2.515,-11.35 0,-4.33 0.838,-8.13 2.515,-11.37 1.677,-3.26 4.056,-5.8 7.137,-7.6 3.099,-1.83 6.772,-2.74 11.02,-2.74 4.247,0 7.911,0.91 10.992,2.74 3.099,1.8 5.487,4.34 7.164,7.6 1.677,3.24 2.515,7.04 2.515,11.37 0,4.31 -0.838,8.09 -2.515,11.35 -1.677,3.25 -4.065,5.78 -7.164,7.6 -3.081,1.81 -6.745,2.71 -10.992,2.71 z m 0.054,-9.02 c 1.933,0 3.546,-0.55 4.84,-1.64 1.294,-1.12 2.27,-2.63 2.926,-4.54 0.674,-1.92 1.012,-4.1 1.012,-6.54 0,-2.44 -0.338,-4.62 -1.012,-6.53 -0.656,-1.92 -1.632,-3.43 -2.926,-4.54 -1.294,-1.11 -2.907,-1.67 -4.84,-1.67 -1.95,0 -3.591,0.56 -4.922,1.67 -1.312,1.11 -2.306,2.62 -2.98,4.54 -0.656,1.91 -0.984,4.09 -0.984,6.53 0,2.44 0.328,4.62 0.984,6.54 0.674,1.91 1.668,3.42 2.98,4.54 1.331,1.09 2.972,1.64 4.922,1.64 z m 59.53,8.99 c -2.68,0 -5.068,-0.46 -7.165,-1.39 -2.096,-0.95 -3.755,-2.34 -4.976,-4.19 -1.203,-1.85 -1.805,-4.17 -1.805,-6.94 0,-2.33 0.429,-4.29 1.285,-5.88 0.857,-1.59 2.024,-2.86 3.5,-3.83 1.477,-0.96 3.154,-1.69 5.032,-2.19 1.895,-0.49 3.882,-0.83 5.961,-1.03 2.442,-0.26 4.411,-0.5 5.906,-0.72 1.495,-0.23 2.579,-0.58 3.254,-1.03 0.674,-0.46 1.011,-1.13 1.011,-2.03 v -0.16 c 0,-1.73 -0.546,-3.07 -1.64,-4.02 -1.076,-0.95 -2.607,-1.42 -4.594,-1.42 -2.096,0 -3.764,0.46 -5.004,1.39 -1.239,0.91 -2.06,2.06 -2.461,3.45 l -10.773,-0.88 c 0.547,-2.55 1.622,-4.76 3.226,-6.62 1.605,-1.87 3.674,-3.31 6.207,-4.32 2.552,-1.02 5.506,-1.53 8.86,-1.53 2.333,0 4.566,0.28 6.699,0.82 2.151,0.55 4.056,1.4 5.715,2.55 1.677,1.14 2.999,2.62 3.965,4.43 0.966,1.78 1.449,3.92 1.449,6.42 V 1476 h -11.047 v -5.82 h -0.328 c -0.675,1.31 -1.577,2.47 -2.707,3.47 -1.13,0.98 -2.488,1.76 -4.074,2.32 -1.586,0.55 -3.418,0.82 -5.496,0.82 z m 3.335,-8.04 c 1.714,0 3.227,-0.33 4.54,-1.01 1.312,-0.69 2.342,-1.62 3.089,-2.79 0.748,-1.16 1.121,-2.49 1.121,-3.96 v -4.46 c -0.364,0.24 -0.865,0.46 -1.503,0.66 -0.62,0.18 -1.322,0.35 -2.106,0.52 -0.784,0.14 -1.568,0.28 -2.351,0.41 -0.784,0.11 -1.495,0.21 -2.133,0.3 -1.367,0.2 -2.561,0.52 -3.582,0.95 -1.021,0.44 -1.814,1.03 -2.379,1.78 -0.565,0.73 -0.848,1.64 -0.848,2.74 0,1.58 0.574,2.79 1.723,3.63 1.166,0.82 2.643,1.23 4.429,1.23 z M 101.867,1568 v -56 h 11.649 v 21.05 h 0.355 c 0.511,-1.13 1.249,-2.27 2.215,-3.44 0.984,-1.19 2.26,-2.17 3.828,-2.95 1.586,-0.81 3.555,-1.21 5.906,-1.21 3.063,0 5.888,0.81 8.477,2.41 2.588,1.59 4.657,3.98 6.207,7.19 1.549,3.19 2.324,7.19 2.324,12 0,4.69 -0.756,8.65 -2.269,11.87 -1.495,3.21 -3.537,5.64 -6.125,7.3 -2.571,1.64 -5.451,2.46 -8.641,2.46 -2.26,0 -4.184,-0.37 -5.77,-1.12 -1.567,-0.74 -2.852,-1.68 -3.855,-2.81 -1.003,-1.15 -1.768,-2.31 -2.297,-3.48 h -0.519 v 6.73 z m 11.403,-21 c 0,2.5 0.346,4.68 1.039,6.54 0.692,1.85 1.695,3.3 3.007,4.34 1.313,1.02 2.908,1.53 4.786,1.53 1.895,0 3.5,-0.52 4.812,-1.55 1.313,-1.06 2.306,-2.52 2.981,-4.38 0.692,-1.88 1.039,-4.04 1.039,-6.48 0,-2.42 -0.338,-4.56 -1.012,-6.4 -0.675,-1.84 -1.668,-3.28 -2.981,-4.32 -1.312,-1.04 -2.925,-1.56 -4.839,-1.56 -1.896,0 -3.5,0.5 -4.813,1.51 -1.294,1 -2.288,2.42 -2.98,4.26 -0.693,1.84 -1.039,4.01 -1.039,6.51 z m 38.101,21 v -42 h 11.648 v 42 z m 5.851,-47.41 c -1.732,0 -3.217,-0.58 -4.457,-1.73 -1.221,-1.16 -1.832,-2.56 -1.832,-4.18 0,-1.6 0.611,-2.98 1.832,-4.13 1.24,-1.17 2.725,-1.75 4.457,-1.75 1.732,0 3.208,0.58 4.43,1.75 1.239,1.15 1.859,2.53 1.859,4.13 0,1.62 -0.62,3.02 -1.859,4.18 -1.222,1.15 -2.698,1.73 -4.43,1.73 z m 38.238,5.41 v 8.75 H 170.167 V 1526 Z m -19.551,-10.06 h 11.649 v 39.15 c 0,1.08 0.164,1.92 0.492,2.52 0.328,0.58 0.784,0.99 1.367,1.23 0.602,0.24 1.294,0.36 2.078,0.36 0.547,0 1.094,-0.05 1.641,-0.14 0.547,-0.11 0.966,-0.19 1.258,-0.25 l 1.832,8.67 c -0.584,0.18 -1.404,0.39 -2.461,0.63 -1.058,0.25 -2.343,0.41 -3.856,0.46 -2.807,0.11 -5.268,-0.26 -7.383,-1.12 -2.096,-0.85 -3.728,-2.18 -4.894,-3.99 -1.167,-1.8 -1.741,-4.08 -1.723,-6.84 z m 46.434,52.88 c -4.302,0 -8.002,-0.91 -11.101,-2.73 -3.081,-1.85 -5.451,-4.4 -7.11,-7.66 -1.64,-3.26 -2.461,-7.02 -2.461,-11.27 0,-4.3 0.83,-8.07 2.489,-11.32 1.677,-3.26 4.056,-5.8 7.136,-7.63 3.081,-1.84 6.745,-2.76 10.993,-2.76 3.664,0 6.872,0.67 9.625,2 2.752,1.33 4.931,3.2 6.535,5.6 1.604,2.41 2.488,5.24 2.652,8.48 h -10.992 c -0.31,-2.1 -1.13,-3.78 -2.461,-5.06 -1.313,-1.29 -3.035,-1.94 -5.168,-1.94 -1.805,0 -3.382,0.49 -4.731,1.48 -1.33,0.96 -2.369,2.38 -3.117,4.24 -0.747,1.86 -1.121,4.11 -1.121,6.75 0,2.68 0.365,4.96 1.094,6.84 0.747,1.87 1.795,3.3 3.144,4.29 1.349,0.98 2.926,1.48 4.731,1.48 1.331,0 2.525,-0.28 3.582,-0.82 1.075,-0.55 1.96,-1.34 2.652,-2.38 0.711,-1.06 1.176,-2.33 1.395,-3.8 h 10.992 c -0.182,3.2 -1.057,6.03 -2.625,8.47 -1.549,2.43 -3.691,4.32 -6.426,5.69 -2.734,1.37 -5.97,2.05 -9.707,2.05 z m 45.963,0 c -4.248,0 -7.921,-0.9 -11.02,-2.71 -3.081,-1.82 -5.46,-4.35 -7.137,-7.6 -1.677,-3.26 -2.515,-7.04 -2.515,-11.35 0,-4.33 0.838,-8.13 2.515,-11.37 1.677,-3.26 4.056,-5.8 7.137,-7.6 3.099,-1.83 6.772,-2.74 11.02,-2.74 4.247,0 7.911,0.91 10.992,2.74 3.099,1.8 5.487,4.34 7.164,7.6 1.677,3.24 2.515,7.04 2.515,11.37 0,4.31 -0.838,8.09 -2.515,11.35 -1.677,3.25 -4.065,5.78 -7.164,7.6 -3.081,1.81 -6.745,2.71 -10.992,2.71 z m 0.054,-9.02 c 1.933,0 3.546,-0.55 4.84,-1.64 1.294,-1.12 2.27,-2.63 2.926,-4.54 0.674,-1.92 1.012,-4.1 1.012,-6.54 0,-2.44 -0.338,-4.62 -1.012,-6.53 -0.656,-1.92 -1.632,-3.43 -2.926,-4.54 -1.294,-1.11 -2.907,-1.67 -4.84,-1.67 -1.95,0 -3.591,0.56 -4.922,1.67 -1.312,1.11 -2.306,2.62 -2.98,4.54 -0.656,1.91 -0.984,4.09 -0.984,6.53 0,2.44 0.328,4.62 0.984,6.54 0.674,1.91 1.668,3.42 2.98,4.54 1.331,1.09 2.972,1.64 4.922,1.64 z m 28.962,8.2 v -42 h 11.648 v 42 z m 5.851,-47.41 c -1.732,0 -3.217,-0.58 -4.457,-1.73 -1.221,-1.16 -1.832,-2.56 -1.832,-4.18 0,-1.6 0.611,-2.98 1.832,-4.13 1.24,-1.17 2.725,-1.75 4.457,-1.75 1.732,0 3.209,0.58 4.43,1.75 1.24,1.15 1.859,2.53 1.859,4.13 0,1.62 -0.619,3.02 -1.859,4.18 -1.221,1.15 -2.698,1.73 -4.43,1.73 z m 27.547,23.13 V 1568 h -11.649 v -42 h 11.102 v 7.41 h 0.492 c 0.93,-2.44 2.488,-4.37 4.676,-5.8 2.187,-1.44 4.84,-2.16 7.957,-2.16 2.916,0 5.459,0.64 7.629,1.92 2.169,1.27 3.855,3.1 5.058,5.47 1.203,2.35 1.805,5.15 1.805,8.42 V 1568 h -11.649 v -24.66 c 0.019,-2.57 -0.638,-4.58 -1.968,-6.02 -1.331,-1.46 -3.163,-2.19 -5.496,-2.19 -1.568,0 -2.953,0.34 -4.157,1.01 -1.185,0.68 -2.114,1.66 -2.789,2.96 -0.656,1.27 -0.993,2.81 -1.011,4.62 z m 37.021,24.28 v -42 h 11.648 v 42 z m 5.851,-47.41 c -1.732,0 -3.217,-0.58 -4.457,-1.73 -1.221,-1.16 -1.832,-2.56 -1.832,-4.18 0,-1.6 0.611,-2.98 1.832,-4.13 1.24,-1.17 2.725,-1.75 4.457,-1.75 1.732,0 3.208,0.58 4.43,1.75 1.239,1.15 1.859,2.53 1.859,4.13 0,1.62 -0.62,3.02 -1.859,4.18 -1.222,1.15 -2.698,1.73 -4.43,1.73 z m 15.679,47.41 v -6.95 l 20.563,-25.45 v -0.3 h -19.852 v -9.3 h 33.879 v 7.57 l -19.305,24.83 v 0.3 h 20.016 v 9.3 z m 62.916,0.82 c -4.32,0 -8.039,-0.87 -11.156,-2.62 -3.099,-1.77 -5.487,-4.27 -7.164,-7.5 -1.678,-3.24 -2.516,-7.08 -2.516,-11.51 0,-4.32 0.838,-8.11 2.516,-11.37 1.677,-3.27 4.037,-5.81 7.082,-7.63 3.062,-1.83 6.653,-2.74 10.773,-2.74 2.771,0 5.35,0.45 7.738,1.34 2.407,0.88 4.503,2.2 6.289,3.97 1.805,1.77 3.209,3.99 4.211,6.67 1.003,2.66 1.504,5.78 1.504,9.35 v 3.2 h -35.465 v -7.22 h 24.5 c 0,-1.68 -0.364,-3.16 -1.093,-4.46 -0.73,-1.29 -1.741,-2.3 -3.036,-3.03 -1.276,-0.75 -2.761,-1.12 -4.457,-1.12 -1.768,0 -3.336,0.41 -4.703,1.23 -1.349,0.8 -2.406,1.89 -3.172,3.25 -0.765,1.35 -1.157,2.86 -1.175,4.51 v 6.87 c 0,2.08 0.382,3.87 1.148,5.38 0.784,1.52 1.887,2.68 3.309,3.5 1.422,0.82 3.108,1.23 5.058,1.23 1.295,0 2.479,-0.18 3.555,-0.54 1.075,-0.37 1.996,-0.91 2.762,-1.64 0.765,-0.73 1.349,-1.62 1.75,-2.68 l 10.773,0.71 c -0.547,2.59 -1.668,4.85 -3.363,6.78 -1.677,1.91 -3.847,3.41 -6.508,4.48 -2.643,1.06 -5.697,1.59 -9.16,1.59 z m 43.125,-0.14 c -3.19,0 -6.079,-0.82 -8.668,-2.46 -2.57,-1.66 -4.612,-4.09 -6.125,-7.3 -1.494,-3.22 -2.242,-7.18 -2.242,-11.87 0,-4.81 0.775,-8.81 2.324,-12 1.55,-3.21 3.61,-5.6 6.18,-7.19 2.589,-1.6 5.423,-2.41 8.504,-2.41 2.352,0 4.311,0.4 5.879,1.21 1.586,0.78 2.862,1.76 3.828,2.95 0.984,1.17 1.732,2.31 2.242,3.44 h 0.356 V 1512 h 11.621 v 56 h -11.485 v -6.73 h -0.492 c -0.547,1.17 -1.321,2.33 -2.324,3.48 -0.984,1.13 -2.27,2.07 -3.855,2.81 -1.568,0.75 -3.482,1.12 -5.743,1.12 z m 3.692,-9.27 c 1.877,0 3.463,-0.51 4.758,-1.53 1.312,-1.04 2.315,-2.49 3.007,-4.34 0.711,-1.86 1.067,-4.04 1.067,-6.54 0,-2.5 -0.347,-4.67 -1.039,-6.51 -0.693,-1.84 -1.696,-3.26 -3.008,-4.26 -1.313,-1.01 -2.908,-1.51 -4.785,-1.51 -1.914,0 -3.528,0.52 -4.84,1.56 -1.313,1.04 -2.306,2.48 -2.981,4.32 -0.674,1.84 -1.011,3.98 -1.011,6.4 0,2.44 0.337,4.6 1.011,6.48 0.693,1.86 1.687,3.32 2.981,4.38 1.312,1.03 2.926,1.55 4.84,1.55 z m 57.43,8.59 -11.429,-42 h 11.785 l 6.508,28.22 h 0.382 l 6.782,-28.22 h 11.566 l 6.891,28.05 h 0.355 l 6.399,-28.05 h 11.757 l -11.402,42 h -12.332 l -7.219,-26.41 h -0.519 l -7.219,26.41 z m 75.904,0.82 c -4.247,0 -7.92,-0.9 -11.019,-2.71 -3.081,-1.82 -5.46,-4.35 -7.137,-7.6 -1.677,-3.26 -2.516,-7.04 -2.516,-11.35 0,-4.33 0.839,-8.13 2.516,-11.37 1.677,-3.26 4.056,-5.8 7.137,-7.6 3.099,-1.83 6.772,-2.74 11.019,-2.74 4.248,0 7.912,0.91 10.992,2.74 3.099,1.8 5.487,4.34 7.164,7.6 1.677,3.24 2.516,7.04 2.516,11.37 0,4.31 -0.839,8.09 -2.516,11.35 -1.677,3.25 -4.065,5.78 -7.164,7.6 -3.08,1.81 -6.744,2.71 -10.992,2.71 z m 0.055,-9.02 c 1.932,0 3.545,-0.55 4.84,-1.64 1.294,-1.12 2.269,-2.63 2.925,-4.54 0.675,-1.92 1.012,-4.1 1.012,-6.54 0,-2.44 -0.337,-4.62 -1.012,-6.53 -0.656,-1.92 -1.631,-3.43 -2.925,-4.54 -1.295,-1.11 -2.908,-1.67 -4.84,-1.67 -1.951,0 -3.591,0.56 -4.922,1.67 -1.313,1.11 -2.306,2.62 -2.981,4.54 -0.656,1.91 -0.984,4.09 -0.984,6.53 0,2.44 0.328,4.62 0.984,6.54 0.675,1.91 1.668,3.42 2.981,4.54 1.331,1.09 2.971,1.64 4.922,1.64 z m 28.961,8.2 v -42 h 11.293 v 7.33 h 0.438 c 0.765,-2.61 2.05,-4.58 3.855,-5.91 1.805,-1.35 3.883,-2.02 6.235,-2.02 0.583,0 1.212,0.03 1.886,0.11 0.675,0.07 1.267,0.17 1.778,0.3 v 10.33 c -0.547,-0.16 -1.304,-0.31 -2.27,-0.43 -0.966,-0.13 -1.85,-0.19 -2.652,-0.19 -1.714,0 -3.245,0.37 -4.594,1.12 -1.331,0.73 -2.388,1.75 -3.172,3.06 -0.766,1.31 -1.148,2.82 -1.148,4.54 V 1568 Z m 43.925,-56 v 56 h -11.648 v -56 z m 25.578,56.68 c -3.19,0 -6.079,-0.82 -8.668,-2.46 -2.57,-1.66 -4.612,-4.09 -6.125,-7.3 -1.495,-3.22 -2.242,-7.18 -2.242,-11.87 0,-4.81 0.775,-8.81 2.324,-12 1.55,-3.21 3.61,-5.6 6.18,-7.19 2.588,-1.6 5.423,-2.41 8.504,-2.41 2.351,0 4.311,0.4 5.879,1.21 1.586,0.78 2.862,1.76 3.828,2.95 0.984,1.17 1.732,2.31 2.242,3.44 h 0.355 V 1512 h 11.622 v 56 h -11.485 v -6.73 h -0.492 c -0.547,1.17 -1.322,2.33 -2.324,3.48 -0.985,1.13 -2.27,2.07 -3.856,2.81 -1.567,0.75 -3.481,1.12 -5.742,1.12 z m 3.692,-9.27 c 1.877,0 3.463,-0.51 4.757,-1.53 1.313,-1.04 2.315,-2.49 3.008,-4.34 0.711,-1.86 1.067,-4.04 1.067,-6.54 0,-2.5 -0.347,-4.67 -1.04,-6.51 -0.692,-1.84 -1.695,-3.26 -3.007,-4.26 -1.313,-1.01 -2.908,-1.51 -4.785,-1.51 -1.915,0 -3.528,0.52 -4.84,1.56 -1.313,1.04 -2.306,2.48 -2.981,4.32 -0.674,1.84 -1.012,3.98 -1.012,6.4 0,2.44 0.338,4.6 1.012,6.48 0.693,1.86 1.686,3.32 2.981,4.38 1.312,1.03 2.925,1.55 4.84,1.55 z"
       fill="#ffffff"
       id="path1675" />
    <path
       d="m 1791.97,512 c 0,67.895 -26.97,133.01 -74.98,181.019 -48.01,48.01 -113.13,74.981 -181.02,74.981 0,-135.128 0,-256 0,-256 0,0 110.31,0 256,0 z"
       fill="#ff9500"
       id="path1677" />
    <path
       d="m 767.969,0.0781315 c 67.895,8.9e-6 133.01,26.9713685 181.019,74.9806685 48.009,48.0092 74.982,113.1242 74.982,181.0192 -135.129,0 -256.001,0 -256.001,0 0,0 0,-110.315 0,-255.9998685 z"
       fill="#ffac36"
       id="path1679" />
    <path
       d="m 1791.97,0.0781445 c 135.79,1.78e-5 266.02,53.9426555 362.04,149.9608555 96.02,96.019 149.96,226.248 149.96,362.039 -209.03,0 -512,0 -512,0 0,0 0,-362.039 0,-511.9998555 z"
       fill="#ff9500"
       id="path1681" />
    <path
       d="m 1919.97,770.078 c 70.69,0 128,-57.307 128,-128 0,-70.692 -57.31,-128 -128,-128 -70.69,0 -128,57.308 -128,128 0,70.693 57.31,128 128,128 z"
       fill="#0D6FE0"
       id="path1693"
       style="fill:#000000" />
    <path
       d="m 1280.97,514.078 c 141.38,0 256,-114.615 256,-256 0,-141.385 -114.62,-255.99988 -256,-255.99988 -141.39,0 -256,114.61488 -256,255.99988 0,141.385 114.61,256 256,256 z"
       fill="#ffac36"
       id="path1695" />
  </g>
  <defs
     id="defs1704">
    <clipPath
       id="clip0_1672_1516">
      <rect
         width="2304"
         height="2691"
         fill="#ffffff"
         id="rect1701"
         x="0"
         y="0" />
    </clipPath>
  </defs>
</svg>
