<?xml version="1.0" encoding="UTF-8" standalone="no"?>
<!-- Created with Inkscape (http://www.inkscape.org/) -->

<svg
   width="162.67953mm"
   height="12.835947mm"
   viewBox="0 0 162.67954 12.835947"
   version="1.1"
   id="svg1491"
   inkscape:version="1.1.2 (b8e25be8, 2022-02-05)"
   sodipodi:docname="logo-white.svg"
   xmlns:inkscape="http://www.inkscape.org/namespaces/inkscape"
   xmlns:sodipodi="http://sodipodi.sourceforge.net/DTD/sodipodi-0.dtd"
   xmlns:xlink="http://www.w3.org/1999/xlink"
   xmlns="http://www.w3.org/2000/svg"
   xmlns:svg="http://www.w3.org/2000/svg"
   xmlns:rdf="http://www.w3.org/1999/02/22-rdf-syntax-ns#"
   xmlns:cc="http://creativecommons.org/ns#"
   xmlns:dc="http://purl.org/dc/elements/1.1/">
  <defs
     id="defs1485">
    <linearGradient
       inkscape:collect="always"
       xlink:href="#coin-gradient-1"
       id="linearGradient914"
       gradientUnits="userSpaceOnUse"
       gradientTransform="scale(0.99994167,1.0000583)"
       x1="0.0004394635"
       y1="-0.00059563987"
       x2="0.0004394635"
       y2="63.996323" />
    <linearGradient
       y2="63.996323"
       x2="0.0004394635"
       y1="-0.00059563987"
       x1="0.0004394635"
       id="coin-gradient-1"
       gradientTransform="scale(0.99994167,1.0000583)"
       gradientUnits="userSpaceOnUse">
      <stop
         id="stop12-3"
         style="stop-color:#f9aa4b"
         offset="0%" />
      <stop
         id="stop14-1"
         style="stop-color:#f7931a"
         offset="100%" />
    </linearGradient>
  </defs>
  <sodipodi:namedview
     id="base"
     pagecolor="#000000"
     bordercolor="#666666"
     borderopacity="1.0"
     inkscape:pageopacity="0"
     inkscape:pageshadow="2"
     inkscape:zoom="2.8"
     inkscape:cx="283.75"
     inkscape:cy="71.25"
     inkscape:document-units="mm"
     inkscape:current-layer="g1148"
     showgrid="false"
     inkscape:window-width="2560"
     inkscape:window-height="1387"
     inkscape:window-x="0"
     inkscape:window-y="25"
     inkscape:window-maximized="1"
     inkscape:pagecheckerboard="0" />
  <metadata
     id="metadata1488">
    <rdf:RDF>
      <cc:Work
         rdf:about="">
        <dc:format>image/svg+xml</dc:format>
        <dc:type
           rdf:resource="http://purl.org/dc/dcmitype/StillImage" />
      </cc:Work>
    </rdf:RDF>
  </metadata>
  <g
     inkscape:label="Layer 1"
     inkscape:groupmode="layer"
     id="layer1"
     transform="translate(-30.907951,-137.16363)">
    <g
       inkscape:export-ydpi="96"
       inkscape:export-xdpi="96"
       transform="translate(26.030177,-77.720227)"
       id="g1148">
      <g
         aria-label="twentyone   world"
         id="text948"
         style="font-size:16.9333px;line-height:0.8;letter-spacing:0px;word-spacing:0px;fill:#ffffff;stroke-width:0.530502">
        <path
           d="m 12.497759,214.93466 v 2.87866 h -2.387595 v 9.60119 H 7.2484361 v -9.60119 h -2.370662 v -2.87866 z"
           style="font-family:'The Bold Font';-inkscape-font-specification:'The Bold Font'"
           id="path32994" />
        <path
           d="m 25.895174,214.9008 h 2.997194 l -3.674526,12.51371 h -2.827861 l -1.64253,-6.23146 -1.422397,6.23146 H 16.480259 L 12.348534,214.9008 h 3.014127 l 2.302929,6.92572 1.574797,-6.92572 h 2.810928 l 1.828796,6.89185 z"
           style="font-family:'The Bold Font';-inkscape-font-specification:'The Bold Font'"
           id="path32996" />
        <path
           d="m 37.036755,217.84719 h -5.113857 v 1.8796 h 4.148659 v 2.86172 h -4.148659 v 1.96427 h 5.113857 v 2.86173 H 29.061171 V 215.0024 l 7.975584,-0.0169 z"
           style="font-family:'The Bold Font';-inkscape-font-specification:'The Bold Font'"
           id="path32998" />
        <path
           d="m 45.670622,214.98546 h 2.861728 v 12.42905 h -3.098794 l -4.063992,-7.24746 v 7.24746 h -2.861728 v -12.39518 h 3.115727 l 4.047059,7.23052 z"
           style="font-family:'The Bold Font';-inkscape-font-specification:'The Bold Font'"
           id="path33000" />
        <path
           d="m 57.245325,214.93466 v 2.87866 H 54.85773 v 9.60119 h -2.861728 v -9.60119 H 49.62534 v -2.87866 z"
           style="font-family:'The Bold Font';-inkscape-font-specification:'The Bold Font'"
           id="path33002" />
        <path
           d="m 60.38116,227.41451 1.439331,-3.52213 -4.250258,-9.00852 h 3.166527 l 2.556928,5.40173 2.184396,-5.40173 h 3.098794 l -5.096924,12.53065 z"
           style="font-family:'The Bold Font';-inkscape-font-specification:'The Bold Font'"
           id="path33004" />
        <path
           d="m 75.625627,214.96853 q 1.286931,0 2.421462,0.49107 1.134531,0.49106 1.981196,1.33773 0.846665,0.82973 1.337731,1.96426 0.491066,1.13453 0.491066,2.42146 0,1.28693 -0.491066,2.42146 -0.491066,1.13453 -1.337731,1.9812 -0.846665,0.82973 -1.981196,1.3208 -1.134531,0.49106 -2.421462,0.49106 -1.286931,0 -2.421462,-0.49106 -1.134531,-0.49107 -1.981196,-1.3208 -0.829731,-0.84667 -1.320797,-1.9812 -0.491066,-1.13453 -0.491066,-2.42146 0,-1.28693 0.491066,-2.42146 0.491066,-1.13453 1.320797,-1.96426 0.846665,-0.84667 1.981196,-1.33773 1.134531,-0.49107 2.421462,-0.49107 z m 0,9.56731 q 0.694266,0 1.303864,-0.254 0.609599,-0.27093 1.066798,-0.72813 0.457199,-0.4572 0.711199,-1.0668 0.270933,-0.60959 0.270933,-1.30386 0,-0.69426 -0.270933,-1.30386 -0.254,-0.6096 -0.711199,-1.0668 -0.457199,-0.4572 -1.066798,-0.7112 -0.609598,-0.27093 -1.303864,-0.27093 -0.694265,0 -1.303864,0.27093 -0.609599,0.254 -1.066798,0.7112 -0.457199,0.4572 -0.728132,1.0668 -0.253999,0.6096 -0.253999,1.30386 0,0.69427 0.253999,1.30386 0.270933,0.6096 0.728132,1.0668 0.457199,0.4572 1.066798,0.72813 0.609599,0.254 1.303864,0.254 z"
           style="font-family:'The Bold Font';-inkscape-font-specification:'The Bold Font'"
           id="path33006" />
        <path
           d="m 89.855951,214.98546 h 2.861728 v 12.42905 h -3.098794 l -4.063992,-7.24746 v 7.24746 h -2.861728 v -12.39518 h 3.115728 l 4.047058,7.23052 z"
           style="font-family:'The Bold Font';-inkscape-font-specification:'The Bold Font'"
           id="path33008" />
        <path
           d="m 102.09106,217.84719 h -5.113859 v 1.8796 h 4.148659 v 2.86172 h -4.148659 v 1.96427 h 5.113859 v 2.86173 H 94.115473 V 215.0024 l 7.975587,-0.0169 z"
           style="font-family:'The Bold Font';-inkscape-font-specification:'The Bold Font'"
           id="path33010" />
        <path
           d="m 124.38613,214.9008 h 2.99719 l -3.67453,12.51371 h -2.82786 l -1.64253,-6.23146 -1.42239,6.23146 h -2.8448 l -4.13172,-12.51371 h 3.01412 l 2.30293,6.92572 1.5748,-6.92572 h 2.81093 l 1.82879,6.89185 z"
           style="font-family:'The Bold Font';-inkscape-font-specification:'The Bold Font'"
           id="path33012" />
        <path
           d="m 133.10625,214.96853 q 1.28693,0 2.42146,0.49107 1.13453,0.49106 1.9812,1.33773 0.84666,0.82973 1.33773,1.96426 0.49106,1.13453 0.49106,2.42146 0,1.28693 -0.49106,2.42146 -0.49107,1.13453 -1.33773,1.9812 -0.84667,0.82973 -1.9812,1.3208 -1.13453,0.49106 -2.42146,0.49106 -1.28693,0 -2.42146,-0.49106 -1.13453,-0.49107 -1.9812,-1.3208 -0.82973,-0.84667 -1.3208,-1.9812 -0.49106,-1.13453 -0.49106,-2.42146 0,-1.28693 0.49106,-2.42146 0.49107,-1.13453 1.3208,-1.96426 0.84667,-0.84667 1.9812,-1.33773 1.13453,-0.49107 2.42146,-0.49107 z m 0,9.56731 q 0.69426,0 1.30386,-0.254 0.6096,-0.27093 1.0668,-0.72813 0.4572,-0.4572 0.7112,-1.0668 0.27093,-0.60959 0.27093,-1.30386 0,-0.69426 -0.27093,-1.30386 -0.254,-0.6096 -0.7112,-1.0668 -0.4572,-0.4572 -1.0668,-0.7112 -0.6096,-0.27093 -1.30386,-0.27093 -0.69427,0 -1.30387,0.27093 -0.60959,0.254 -1.06679,0.7112 -0.4572,0.4572 -0.72814,1.0668 -0.25399,0.6096 -0.25399,1.30386 0,0.69427 0.25399,1.30386 0.27094,0.6096 0.72814,1.0668 0.4572,0.4572 1.06679,0.72813 0.6096,0.254 1.30387,0.254 z"
           style="font-family:'The Bold Font';-inkscape-font-specification:'The Bold Font'"
           id="path33014" />
        <path
           d="m 143.93298,224.19718 q -0.22013,0.0339 -0.44027,0.0508 -0.22013,0.0169 -0.4572,0.0339 v 3.13267 h -2.86172 v -12.39518 h 2.86172 q 1.0668,0.0169 1.99813,0.38947 0.93134,0.37253 1.6256,0.99906 0.7112,0.62653 1.10067,1.45626 0.40639,0.82974 0.40639,1.778 0,0.99906 -0.42333,1.86266 -0.42333,0.84667 -1.18533,1.4732 l 2.7432,4.43653 h -3.36973 z m -0.89747,-2.794 q 0.4572,-0.0169 0.8636,-0.1524 0.42334,-0.1524 0.72813,-0.38946 0.32174,-0.23707 0.49107,-0.54187 0.18627,-0.32173 0.18627,-0.67733 0,-0.3556 -0.18627,-0.6604 -0.16933,-0.3048 -0.49107,-0.54186 -0.30479,-0.23707 -0.72813,-0.37254 -0.4064,-0.1524 -0.8636,-0.16933 z"
           style="font-family:'The Bold Font';-inkscape-font-specification:'The Bold Font'"
           id="path33016" />
        <path
           d="m 157.95851,227.41451 h -7.39985 v -12.44598 h 2.86173 v 9.58425 h 4.53812 z"
           style="font-family:'The Bold Font';-inkscape-font-specification:'The Bold Font'"
           id="path33018" />
        <path
           d="m 161.59679,214.93466 q 1.23613,0.0677 2.31987,0.59267 1.10066,0.52493 1.89652,1.3716 0.8128,0.84666 1.27,1.96426 0.47413,1.1176 0.47413,2.38759 0,1.25307 -0.45719,2.35373 -0.4572,1.08373 -1.27,1.91347 -0.79587,0.82973 -1.8796,1.33773 -1.08373,0.49106 -2.35373,0.5588 h -2.86172 v -12.49678 h 2.86172 z m 0,9.60118 q 0.6604,-0.0677 1.2192,-0.33866 0.57573,-0.28787 0.98213,-0.7112 0.42333,-0.44027 0.6604,-1.016 0.23707,-0.57573 0.23707,-1.2192 0,-0.66039 -0.23707,-1.25306 -0.23707,-0.6096 -0.6604,-1.0668 -0.42333,-0.47413 -0.98213,-0.762 -0.5588,-0.3048 -1.2192,-0.37253 z"
           style="font-family:'The Bold Font';-inkscape-font-specification:'The Bold Font'"
           id="path33020" />
      </g>
      <g
         transform="matrix(0.10842768,0,0,0.10842768,104.38367,220.78043)"
         id="g912"
         inkscape:export-xdpi="96"
         inkscape:export-ydpi="96">
        <path
           inkscape:connector-curvature="0"
           id="path908"
           d="M 63.0359,39.741 C 58.7619,56.884 41.3989,67.317 24.2539,63.042 7.1159,58.768 -3.3171,41.404 0.9589,24.262 5.2309,7.117 22.5939,-3.317 39.7339,0.957 c 17.144,4.274 27.576,21.64 23.302,38.784 z"
           style="fill:url(#linearGradient914)" />
        <path
           id="path910"
           d="m 46.1009,27.441 c 0.637,-4.258 -2.605,-6.547 -7.038,-8.074 l 1.438,-5.768 -3.511,-0.875 -1.4,5.616 c -0.923,-0.23 -1.871,-0.447 -2.813,-0.662 l 1.41,-5.653 -3.509,-0.875 -1.439,5.766 c -0.764,-0.174 -1.514,-0.346 -2.242,-0.527 l 0.004,-0.018 -4.842,-1.209 -0.934,3.75 c 0,0 2.605,0.597 2.55,0.634 1.422,0.355 1.679,1.296 1.636,2.042 -3.94,15.801 0,0 -3.94,15.801 -0.174,0.432 -0.615,1.08 -1.609,0.834 0.035,0.051 -2.552,-0.637 -2.552,-0.637 l -1.743,4.019 4.569,1.139 c 0.85,0.213 1.683,0.436 2.503,0.646 l -1.453,5.834 3.507,0.875 1.439,-5.772 c 0.958,0.26 1.888,0.5 2.798,0.726 l -1.434,5.745 3.511,0.875 1.453,-5.823 c 5.987,1.133 10.489,0.676 12.384,-4.739 1.527,-4.36 -0.076,-6.875 -3.226,-8.515 2.294,-0.529 4.022,-2.038 4.483,-5.155 z m -8.022,11.249 c -1.085,4.36 -8.426,2.003 -10.806,1.412 l 1.928,-7.729 c 2.38,0.594 10.012,1.77 8.878,6.317 z m 1.086,-11.312 c -0.99,3.966 -7.1,1.951 -9.082,1.457 l 1.748,-7.01 c 1.982,0.494 8.365,1.416 7.334,5.553 z"
           style="fill:#ffffff"
           inkscape:connector-curvature="0"
           sodipodi:nodetypes="ccccccccccccccccccccccccccccccccccccccc" />
      </g>
    </g>
  </g>
</svg>
