<?xml version="1.0" encoding="UTF-8" standalone="no"?>
<!-- Created with Inkscape (http://www.inkscape.org/) -->

<svg
   width="296.1886mm"
   height="237.85701mm"
   viewBox="0 0 296.1886 237.85701"
   version="1.1"
   id="svg14232"
   inkscape:version="1.1.2 (b8e25be8, 2022-02-05)"
   sodipodi:docname="space.svg"
   inkscape:export-filename="/Users/gigi/space.png"
   inkscape:export-xdpi="96"
   inkscape:export-ydpi="96"
   xmlns:inkscape="http://www.inkscape.org/namespaces/inkscape"
   xmlns:sodipodi="http://sodipodi.sourceforge.net/DTD/sodipodi-0.dtd"
   xmlns="http://www.w3.org/2000/svg"
   xmlns:svg="http://www.w3.org/2000/svg">
  <sodipodi:namedview
     id="namedview14234"
     pagecolor="#000000"
     bordercolor="#666666"
     borderopacity="1.0"
     inkscape:pageshadow="2"
     inkscape:pageopacity="0"
     inkscape:pagecheckerboard="0"
     inkscape:document-units="mm"
     showgrid="false"
     inkscape:zoom="0.55678311"
     inkscape:cx="1076.7209"
     inkscape:cy="918.67011"
     inkscape:window-width="2560"
     inkscape:window-height="1387"
     inkscape:window-x="0"
     inkscape:window-y="25"
     inkscape:window-maximized="0"
     inkscape:current-layer="layer1" />
  <defs
     id="defs14229" />
  <g
     inkscape:label="Layer 1"
     inkscape:groupmode="layer"
     id="layer1"
     transform="translate(189.72923,94.324669)">
    <g
       id="g19647"
       transform="translate(0.18267372,2.7240226)">
      <path
         style="fill:#f2f2f2;fill-opacity:1;stroke-width:0.264583"
         d="m -121.72629,115.85936 c -5.81608,-1.173 -10.79769,-5.0401 -13.2537,-10.28848 -1.74287,-3.72441 -1.66073,-2.63641 -1.81719,-24.071076 -0.14265,-19.5426 -0.14265,-19.5426 -1.48634,-20.04374 -7.51775,-2.80385 -12.82472,-10.17461 -13.61361,-18.90774 -0.59493,-6.58601 -0.20926,-52.80707 0.46044,-55.18243 2.09636,-7.43554 6.06358,-10.95085 16.08436,-14.25219 2.7649,-0.9109 5.10787,-1.70142 5.20661,-1.75673 0.0987,-0.0553 -0.29057,-1.11807 -0.86513,-2.36171 -4.51872,-9.78076 -2.95794,-21.13713 3.94444,-28.69987 11.09314,-12.15446 31.0509,-8.89965 38.02821,6.20182 3.07198,6.6489 2.99213,15.57343 -0.20084,22.44565 -0.59521,1.28108 -1.03436,2.3696 -0.97587,2.41893 0.0973,0.0821 3.00091,1.04807 5.70964,1.89949 1.10539,0.34745 1.10539,0.34745 2.21433,-1.35463 2.6985,-4.14181 5.61141,-5.97652 13.87819,-8.74127 3.34698,-1.11937 6.11473,-2.05646 6.15055,-2.08242 0.0358,-0.026 -0.28871,-0.70052 -0.7212,-1.49901 -3.98338,-7.35454 -4.25174,-17.18234 -0.67574,-24.74703 8.80705,-18.63047 34.23513,-18.90303 43.48473,-0.46611 3.80113,7.57665 3.61547,17.63977 -0.46443,25.17249 -0.44458,0.82085 -0.77904,1.5154 -0.74321,1.54344 0.0358,0.028 2.80358,0.96092 6.15055,2.07307 8.21423,2.72945 11.12666,4.56207 13.89605,8.74393 1.12279,1.69545 1.12279,1.69545 2.21234,1.35737 2.43798,-0.75648 5.59404,-1.80691 5.69378,-1.89504 0.0585,-0.0517 -0.38065,-1.14213 -0.97588,-2.42321 -5.38475,-11.5896 -1.78245,-25.75472 8.20824,-32.27671 20.43901,-13.34273 44.21619,9.62934 33.5424,32.40663 -0.56282,1.20105 -0.94258,2.22896 -0.84389,2.28424 0.0987,0.0553 2.44165,0.84769 5.20655,1.76092 10.01882,3.30915 13.78312,6.59968 16.04515,14.02566 0.68578,2.25137 1.11932,48.83247 0.51644,55.48867 -0.79899,8.82137 -7.21,17.2696 -14.56465,19.19288 -0.53951,0.1411 -0.54173,0.21862 -0.54173,18.96578 0,21.234376 0.0328,20.820856 -1.98335,25.013966 -2.33195,4.84998 -6.62463,8.36084 -12.03957,9.84682 -2.7268,0.74827 -32.97052,0.71985 -34.48558,-0.0324 -3.05178,-1.5153 -3.3627,-6.11547 -0.55801,-8.25558 1.00264,-0.76504 1.00264,-0.76504 16.63407,-0.90358 17.79569,-0.15772 16.9985,-0.058 19.63393,-2.457 3.02649,-2.75503 2.85845,-1.30426 3.00892,-25.979466 0.141,-23.12349 0.0777,-22.13287 1.49858,-23.44943 1.04412,-0.96745 1.57212,-1.19931 3.53544,-1.55239 4.63838,-0.83418 8.48421,-4.3411 9.67817,-8.82521 0.53477,-2.00848 0.54252,-52.95725 0.008,-54.73227 -1.11625,-3.70902 -2.57913,-4.66778 -11.83775,-7.75826 -7.39293,-2.46773 -7.39293,-2.46773 -9.70192,-1.28523 -6.59935,3.37972 -13.47693,3.34634 -20.35551,-0.0988 -2.06179,-1.03266 -2.06179,-1.03266 -8.06947,0.92178 -6.00766,1.95444 -6.00766,1.95444 -6.08542,12.19317 -0.0697,9.18428 -0.1257,10.32651 -0.54359,11.09096 -1.97352,3.61036 -6.87969,3.57808 -8.88584,-0.0585 -0.38294,-0.69414 -0.45448,-2.27137 -0.57018,-12.56771 -0.18725,-16.66409 0.36605,-15.82376 -13.43253,-20.40139 -7.47942,-2.48127 -7.47942,-2.48127 -9.525,-1.38434 -6.83155,3.66336 -14.9868,3.66331 -21.81848,-1.1e-4 -2.04579,-1.09704 -2.04579,-1.09704 -9.81437,1.48748 -8.19076,2.72498 -9.5545,3.37063 -11.08423,5.24774 -1.96834,2.41531 -1.90456,1.94837 -2.05544,15.05062 -0.11851,10.29219 -0.19068,11.87385 -0.57346,12.56771 -1.76865,3.20604 -5.93894,3.67587 -8.24992,0.92943 -1.14635,-1.36236 -1.23103,-2.21999 -1.2326,-12.4825 -0.002,-9.70098 -0.002,-9.70098 -6.02087,-11.67513 -6.01928,-1.97416 -6.01928,-1.97416 -8.04672,-0.94219 -6.81169,3.46715 -13.69198,3.50682 -20.39106,0.11756 -2.31017,-1.16879 -2.31017,-1.16879 -9.525,1.23002 -9.31443,3.09689 -10.90405,4.13132 -12.01347,7.81767 -0.53421,1.77502 -0.52644,52.72379 0.008,54.73227 1.18212,4.43974 5.08981,8.00341 9.67815,8.82613 1.9629,0.35195 2.49098,0.5837 3.53544,1.55147 1.42089,1.31656 1.35759,0.32594 1.49858,23.44943 0.15046,24.675146 -0.0176,23.224436 3.00895,25.979496 2.63805,2.40141 1.8402,2.30142 19.61293,2.45797 17.4566,0.15381 16.66348,0.0628 17.98121,2.06315 1.71493,2.60328 0.74766,5.94299 -2.09527,7.23434 -1.38453,0.62891 -30.1646,0.7162 -33.21615,0.10075 z m 14.4088,-143.148116 c 7.72788,-2.01286 12.39474,-10.97959 10.19367,-19.58572 -2.66546,-10.42184 -15.14433,-13.95981 -22.44,-6.36212 -9.79546,10.20095 -0.76418,29.33664 12.24633,25.94784 z m 137.80311,-0.34456 c 9.85835,-3.47846 12.885,-18.3198 5.26537,-25.81903 -7.56132,-7.44185 -19.89913,-3.58339 -22.39447,7.00354 -2.72428,11.5581 7.10319,22.35307 17.1291,18.81549 z m -69.21879,-9.6753 c 8.58804,-2.28655 13.64822,-12.79626 10.56405,-21.94092 -4.89667,-14.51886 -24.65747,-13.14269 -27.84013,1.93882 -2.44213,11.57239 7.1641,22.6944 17.27608,20.0021 z"
         id="path14021"
         sodipodi:nodetypes="csscssssccsscscsccsssssssscsssssssssssssssssscssssccssssssssssccsssscsssscssccsscssscsscss" />
      <path
         d="m -43.712848,122.50481 c -8.294951,-4.26651 -34.199591,-26.93728 -43.554161,-38.11695 -12.68636,-15.16149 -17.248961,-33.18644 -12.23766,-48.34599 7.81142,-23.63014 38.14269,-32.8242 56.676752,-17.17995 1.433359,1.20988 1.39297,1.21251 3.045,-0.19885 13.350041,-11.4053 34.40798,-9.78791 47.94269,3.68232 15.01757,14.94601 13.631921,41.03112 -3.258949,61.351 -9.326671,11.22007 -28.471101,28.31306 -41.80263,37.32329 -3.193291,2.15821 -4.81498,2.5118 -6.811042,1.48513 z m 6.364502,-13.3096 c 12.7254,-9.56156 28.62334,-24.17952 35.033638,-32.21301 17.951741,-22.49745 13.215702,-49.26945 -9.780429,-55.28691 -8.92225,-2.33472 -16.68627,-0.038 -24.238939,7.17032 -4.545791,4.33853 -5.718612,4.33819 -10.254501,-0.003 -8.096042,-7.74837 -16.631892,-9.87461 -26.257572,-6.54064 -21.57758,7.47366 -25.10324,33.12134 -7.55013,54.92399 4.92405,6.11613 19.20977,19.66732 28.87461,27.38992 2.785752,2.22591 9.872672,7.53581 10.057782,7.53581 0.0847,0 1.936721,-1.33946 4.115541,-2.97657 z"
         style="fill:#f79621;fill-opacity:1;stroke-width:0.0700042"
         id="path14548" />
    </g>
  </g>
</svg>
